<?xml version="1.0" encoding="utf-8"?>
<!-- Generator: Adobe Illustrator 21.0.0, SVG Export Plug-In . SVG Version: 6.00 Build 0)  -->
<svg version="1.1" xmlns="http://www.w3.org/2000/svg" xmlns:xlink="http://www.w3.org/1999/xlink" x="0px" y="0px"
	 viewBox="0 0 247.9 106.5" style="enable-background:new 0 0 247.9 106.5;" xml:space="preserve">
<style type="text/css">
	.st0{fill:#FFFFFF;}
	.st1{clip-path:url(#SVGID_2_);fill:#D63D16;}
	.st2{fill:#EBF7FE;}
	.st3{fill-rule:evenodd;clip-rule:evenodd;fill:url(#SVGID_3_);}
	.st4{fill-rule:evenodd;clip-rule:evenodd;fill:url(#SVGID_4_);}
	.st5{fill-rule:evenodd;clip-rule:evenodd;fill:url(#SVGID_5_);}
	.st6{fill-rule:evenodd;clip-rule:evenodd;fill:url(#SVGID_6_);}
	.st7{fill-rule:evenodd;clip-rule:evenodd;fill:url(#SVGID_7_);}
	.st8{fill-rule:evenodd;clip-rule:evenodd;fill:url(#SVGID_8_);}
	.st9{fill-rule:evenodd;clip-rule:evenodd;fill:url(#SVGID_9_);}
	.st10{fill-rule:evenodd;clip-rule:evenodd;fill:url(#SVGID_10_);}
	.st11{fill-rule:evenodd;clip-rule:evenodd;fill:url(#SVGID_11_);}
	.st12{fill-rule:evenodd;clip-rule:evenodd;fill:url(#SVGID_12_);}
	.st13{fill-rule:evenodd;clip-rule:evenodd;fill:url(#SVGID_13_);}
	.st14{fill-rule:evenodd;clip-rule:evenodd;fill:url(#SVGID_14_);}
	.st15{fill-rule:evenodd;clip-rule:evenodd;fill:url(#SVGID_15_);}
	.st16{fill-rule:evenodd;clip-rule:evenodd;}
	.st17{fill:#009FE3;}
	.st18{fill:#B8A40C;}
	.st19{fill:#D63D16;}
</style>
<g id="Layer_1">
	<g>
		<g>
			<path class="st0" d="M15.1,69.4V10.2h58.6v59.3c0,2.5-1.5,4.8-3.8,5.9L44.4,87.5L18.9,75.3C16.6,74.2,15.1,71.9,15.1,69.4z"/>
		</g>
		<g>
			<defs>
				<path id="SVGID_1_" d="M20,73c-1.4-0.7-2.3-2-2.3-3.6v-42h53.4v42.1c0,1.5-0.9,2.9-2.3,3.6L44.4,84.6L20,73z"/>
			</defs>
			<clipPath id="SVGID_2_">
				<use xlink:href="#SVGID_1_"  style="overflow:visible;"/>
			</clipPath>
			<polygon class="st1" points="33.6,26.4 33.6,44.8 15.1,44.8 15.1,63.8 33.6,63.8 33.6,87.5 44.4,87.5 55.2,87.5 55.2,63.8 
				73.7,63.8 73.7,44.8 55.2,44.8 55.2,26.4 			"/>
		</g>
		<g>
			<path class="st2" d="M63.7,81l-19.3,9.1L25.1,81c-1.9-0.9-4.1-0.9-6,0l-3.9,1.8c-0.1,0.1-0.2,0.2-0.2,0.3v10.7
				c0,1.1,1.2,1.8,2.2,1.3l1.9-0.9c1.9-0.9,4.1-0.9,6,0l17.6,8.4c1,0.5,2.3,0.5,3.3,0l17.6-8.4c1.9-0.9,4.1-0.9,6,0l1.9,0.9
				c1,0.5,2.2-0.2,2.2-1.3V83.2c0-0.1-0.1-0.3-0.2-0.3L69.6,81C67.8,80.1,65.6,80.1,63.7,81z"/>
			<path d="M66.6,80.9c0.9,0,1.9,0.2,2.7,0.6l3.8,1.8v10.6c0,0.6-0.5,0.9-0.9,0.9c-0.1,0-0.3,0-0.4-0.1l-1.9-0.9
				c-1-0.5-2.1-0.7-3.2-0.7c-1.1,0-2.2,0.3-3.2,0.7l-17.6,8.4c-0.4,0.2-0.9,0.3-1.4,0.3s-1-0.1-1.4-0.3l-17.6-8.4
				c-1-0.5-2.1-0.7-3.2-0.7c-1.1,0-2.2,0.3-3.2,0.7L17,94.7c-0.1,0.1-0.3,0.1-0.4,0.1c-0.5,0-0.9-0.3-0.9-0.9V83.3l3.8-1.8
				c0.8-0.4,1.8-0.6,2.7-0.6c0.9,0,1.9,0.2,2.7,0.6l19.3,9.1l0.2,0.1l0.2-0.1l19.3-9.1C64.8,81.1,65.7,80.9,66.6,80.9 M66.6,80.3
				c-1,0-2,0.2-3,0.7l-19.3,9.1L25.1,81c-0.9-0.4-2-0.7-3-0.7c-1,0-2,0.2-3,0.7l-3.9,1.8c-0.1,0.1-0.2,0.2-0.2,0.3v10.7
				c0,0.8,0.7,1.5,1.5,1.5c0.2,0,0.4,0,0.7-0.2l1.9-0.9c0.9-0.5,2-0.7,3-0.7c1,0,2,0.2,3,0.7l17.6,8.4c0.5,0.2,1.1,0.4,1.7,0.4
				c0.6,0,1.1-0.1,1.7-0.4l17.6-8.4c0.9-0.4,2-0.7,3-0.7c1,0,2,0.2,3,0.7l1.9,0.9c0.2,0.1,0.4,0.2,0.7,0.2c0.8,0,1.5-0.6,1.5-1.5
				V83.2c0-0.1-0.1-0.3-0.2-0.3L69.6,81C68.7,80.6,67.7,80.3,66.6,80.3L66.6,80.3z"/>
		</g>
		<path d="M66.6,82c0.8,0,1.5,0.2,2.2,0.5L72,84v9.5l-1.5-0.7c-1.2-0.6-2.5-0.9-3.8-0.9c-1.3,0-2.6,0.3-3.8,0.8l-17.6,8.4
			c-0.3,0.1-0.6,0.2-0.9,0.2c-0.3,0-0.6-0.1-0.9-0.2l-17.6-8.4c-1.2-0.6-2.5-0.8-3.8-0.8c-1.3,0-2.6,0.3-3.8,0.9l-1.5,0.7l0-9.5
			l3.1-1.5c0.7-0.3,1.4-0.5,2.2-0.5c0.8,0,1.5,0.2,2.2,0.5L44.3,92l0.1,0.1l0.1-0.1l19.9-9.5C65.1,82.2,65.9,82,66.6,82 M66.6,81.8
			c-0.8,0-1.6,0.2-2.3,0.5l-19.9,9.5l-19.9-9.5c-0.7-0.3-1.5-0.5-2.3-0.5c-0.8,0-1.6,0.2-2.3,0.5l-3.2,1.5v10l1.9-0.9
			c1.1-0.5,2.4-0.8,3.7-0.8c1.3,0,2.5,0.3,3.6,0.8l17.6,8.4c0.3,0.1,0.7,0.2,1,0.2s0.7-0.1,1-0.2L63,93c1.1-0.5,2.4-0.8,3.6-0.8
			c1.3,0,2.5,0.3,3.7,0.8l1.9,0.9v-10L69,82.3C68.3,82,67.4,81.8,66.6,81.8L66.6,81.8z"/>
		<rect x="15.1" y="10.2" width="58.6" height="16.2"/>
		<g>
			<g>
				<g id="Gold_Fill_18_">
					
						<radialGradient id="SVGID_3_" cx="35675.7305" cy="-41566.2305" r="2.868786e-03" gradientTransform="matrix(8.000000e-02 0 0 7.730000e-02 -2826.6501 3257.8772)" gradientUnits="userSpaceOnUse">
						<stop  offset="0" style="stop-color:#F7EFCE"/>
						<stop  offset="0.7506" style="stop-color:#C7B23A"/>
						<stop  offset="0.9693" style="stop-color:#B8A300"/>
					</radialGradient>
					<polygon class="st3" points="27.4,44.8 27.4,44.8 27.4,44.8 					"/>
					
						<radialGradient id="SVGID_4_" cx="35675.9062" cy="-41566.5859" r="0" gradientTransform="matrix(8.000000e-02 0 0 7.730000e-02 -2826.6501 3257.8772)" gradientUnits="userSpaceOnUse">
						<stop  offset="0" style="stop-color:#F7EFCE"/>
						<stop  offset="0.7506" style="stop-color:#C7B23A"/>
						<stop  offset="0.9693" style="stop-color:#B8A300"/>
					</radialGradient>
					<polygon class="st4" points="27.4,44.8 27.4,44.8 27.4,44.8 					"/>
					
						<radialGradient id="SVGID_5_" cx="36002.3633" cy="-41549.9961" r="0" gradientTransform="matrix(8.000000e-02 0 0 7.730000e-02 -2826.6501 3257.8772)" gradientUnits="userSpaceOnUse">
						<stop  offset="0" style="stop-color:#F7EFCE"/>
						<stop  offset="0.7506" style="stop-color:#C7B23A"/>
						<stop  offset="0.9693" style="stop-color:#B8A300"/>
					</radialGradient>
					<polygon class="st5" points="53.5,46.1 53.5,46.1 53.5,46.1 					"/>
					
						<radialGradient id="SVGID_6_" cx="35674.6875" cy="-41564.9805" r="0" gradientTransform="matrix(8.000000e-02 0 0 7.730000e-02 -2826.6501 3257.8772)" gradientUnits="userSpaceOnUse">
						<stop  offset="0" style="stop-color:#F7EFCE"/>
						<stop  offset="0.7506" style="stop-color:#C7B23A"/>
						<stop  offset="0.9693" style="stop-color:#B8A300"/>
					</radialGradient>
					<polygon class="st6" points="27.3,44.9 27.3,44.9 27.3,44.9 					"/>
					
						<radialGradient id="SVGID_7_" cx="35890.3516" cy="-41454.9805" r="208.8319" gradientTransform="matrix(8.000000e-02 0 0 7.730000e-02 -2826.6501 3257.8772)" gradientUnits="userSpaceOnUse">
						<stop  offset="0" style="stop-color:#F7EFCE"/>
						<stop  offset="0.7506" style="stop-color:#C7B23A"/>
						<stop  offset="0.9693" style="stop-color:#B8A300"/>
					</radialGradient>
					<path class="st7" d="M30.3,65.1C30.4,65.1,30.4,65.1,30.3,65.1l0.1-0.1c0,0,0,0,0,0l0.1-0.1c0.1-0.1,0.1-0.1,0.1-0.2l0.1-0.1
						l0.2,0.1l-0.2-0.1l0.1-0.1l0.2,0.1l-0.2-0.1l0-0.1l0.2,0.1l-0.2-0.1l0.1-0.5c0-0.1,0-0.1,0-0.1c0-0.1,0.1-0.3,0.2-0.4
						c0,0,0.1-0.1,0.1-0.1l0.1-0.1c0,0,0,0,0,0l0.1-0.1h0c0,0,0,0,0.1,0l0,0c0,0,0,0,0,0l0,0c0,0,0,0,0,0l0,0c0,0,0,0,0.1,0
						c0.2,0,0.5,0,0.7,0.2c0.3,0.1,0.6,0.3,1.2,0.3c0.3,0,0.6,0,0.9-0.1c-0.1-0.1-0.1-0.4,0.1-0.5l0,0l0.3-0.1
						c0.3-0.1,0.6-0.2,0.9-0.3c0.2-0.2,0.5-0.3,0.8-0.3c0.1,0,0.2,0,0.3-0.1c-0.1-0.1-0.1-0.2-0.1-0.3v-0.1l0.1-0.1
						c0.1-0.1,0.2-0.1,0.4-0.2c0,0,0,0,0.1,0c-0.1,0-0.1-0.1-0.1-0.2c0-0.2,0.2-0.4,1-0.8c0.2-0.1,0.6-0.3,0.7-0.4
						c-0.2-0.2-0.4-0.5-0.5-0.7c-0.1-0.2,0.1-0.4,0.2-0.4l0.1,0c0.3-0.1,0.8-0.2,1-0.5l0-0.1l0.1,0c0.1,0,0.3-0.1,0.7-0.2
						c1-0.3,2.6-0.8,3.3-1l0.3-0.1l0,0.5l-0.2,0l0,0l0.2,0l0,0.3c0,0,0,0.1,0,0.1l0,0.1c0,0,0,0.1,0,0.1l0,0c0,0.2,0.1,0.4,0.2,0.5
						l0.1,0.1c0.2,0.2,0.5,0.3,0.9,0.4c0.1,0,0.3,0,0.4,0c0.2,0,0.4,0,0.7,0c0.4,0,0.9-0.1,1.3,0c0.4,0,0.7,0.3,0.8,0.7
						c0.1,0.4-0.2,1-0.9,1.2c-0.6,0.1-1.1,0.1-1.6,0.1l0,0c-0.9-0.1-1.2-0.4-1.5-0.8L44.8,60c-0.1-0.1-0.1-0.1-0.3-0.2
						c-0.1-0.1-0.3-0.1-0.4-0.2c-0.2-0.1-0.4-0.1-0.6-0.3c-0.1,0-0.1-0.1-0.2-0.2c-0.1-0.1-0.1-0.1-0.1-0.2l0,0
						c-0.2-0.2-0.3-0.4-0.5-0.4c-0.2,0-0.4,0.1-0.5,0.2L42.1,59l-0.2-0.1c-0.4-0.2-1,0-1.3,0.4c-0.1,0.1-0.2,0.2-0.2,0.3
						c0,0,0.1,0,0.1,0c0,0,0.1,0,0.1,0h0c0,0,0.1,0,0.1,0l0.1,0c0,0,0.1,0,0.1,0l0,0l0,0c0,0,0.1,0,0.1,0l0,0c0,0,0.1,0,0.1,0
						c0,0,0.1,0,0.1,0.1l0,0c0,0,0.1,0,0.1,0.1l0,0c0,0,0,0,0.1,0.1l0.1,0.1v0c0,0,0,0,0,0l0,0c0,0,0,0.1,0.1,0.1l0,0
						c0,0.1,0.1,0.2,0,0.3c0,0.1-0.2,0.4-0.4,0.4c-0.1,0-0.1,0-0.2-0.1c-0.1-0.1-0.3-0.1-0.4-0.1c-0.4,0-0.8,0.4-0.9,0.7
						c0,0.1-0.1,0.2-0.1,0.2c0.5-0.2,1-0.2,1.4,0.2c0.4,0.2,0.4,0.6,0.4,0.8v0.2l-0.2,0.1c-0.6,0.2-1,0.4-1.2,1.2
						c0.6-0.3,1.2-0.3,1.7-0.3h0.1l0.1,0.1c0.3,0.3,0.7,0.4,1,0.2c0.3-0.2,0.5-0.5,0.8-0.7c0.3-0.3,0.4-0.5,0.6-0.5l0,0
						c0.1,0,0.1-0.1,0.2-0.1c0.1,0,0.2,0,0.3,0.2c0.1,0.2,0.1,0.5,0,0.6c-0.1,0.3-0.3,0.5-0.5,0.6c0.1,0,0.2,0,0.3,0
						c0.4,0,0.6,0,0.8-0.1c0,0,0.1,0,0.1,0c0.1,0,0.1-0.1,0.2-0.1c0.1,0,0.2-0.1,0.2-0.1l0.1,0c0.1,0,0.1,0.1,0.2,0.1
						c0.1,0.1,0.1,0.2,0,0.3c0,0.1-0.1,0.2-0.1,0.2c0.5,0,0.7-0.1,0.9-0.4l0.2-0.3l0.2,0.2c0.1,0.1,0.2,0.2,0.2,0.3
						c0.1,0.1,0.1,0.1,0.2,0.2c0.1-0.3,0.2-0.7,0.6-0.9l0.4-0.2v0.4c0,0.1,0.1,0.5,0.2,0.7c0.1-0.2,0.1-0.3,0.2-0.4
						c0,0,0.2-0.3,0.4-0.3l0,0c0.2,0,0.3,0.2,0.4,0.4c0,0.1,0.1,0.2,0.2,0.3c0.2-0.4,0.5-0.8,0.6-1l0.1-0.1l0.1,0
						c0.1,0,0.2,0,0.3,0.1c0.3,0.1,0.7,0.2,1,0.2c-0.3-0.4-0.4-0.7-0.4-1.3c0,0,0-0.1,0-0.1c0,0,0-0.1,0-0.1
						c0.1-0.3,0.3-0.5,0.6-0.6l0.1-0.1c0.1-0.1,0.2-0.2,0.3-0.3c0.3-0.3,0.3-0.4,0.3-0.7c-0.1-0.2-0.4-0.4-0.6-0.6
						c-0.2-0.1-0.3-0.2-0.4-0.3c-0.6-0.7-0.1-1.6-0.1-1.6c0-0.1,0.1-0.1,0.2-0.2l0.2-0.1l0.2,0.1c0.6,0.5,1.1,0.8,1.7,1.2
						c0.4,0.3,1,0.5,1.6,0.5c0.2,0,0.4,0,0.5,0c0.2,0,0.4,0,0.7,0c1.1,0,2.3,0.3,2.3,1.3c0,0.6-0.6,1.4-1.3,1.4c-0.1,0-0.1,0-0.2,0
						l0,0l0,0c-0.2-0.1-0.3-0.4-0.5-0.6c-0.1-0.3-0.2-0.4-0.4-0.5l0,0c-0.1-0.1-0.4,0.1-0.6,0.3L56,61.4l-0.1-0.1
						c-0.9-0.4-1.5-0.1-2,0.7c0,0,0,0,0,0c0.1,0,0.3,0,0.4,0c0.5,0,1,0.2,1.3,0.5l0.1,0.1v0.1c0,0.2-0.1,0.2-0.2,0.3
						c-0.1,0-0.2,0.1-0.4,0.5l-0.1,0.1l-0.1,0c-0.4,0.1-1,0.8-1.1,1.5c0.5-0.3,1.2-0.5,1.9-0.5h0.1l0.1,0.1c0.2,0.2,0.2,0.5,0.2,0.7
						v0.1l-0.1,0.1c-0.5,0.2-0.9,0.3-1.3,0.4c0.3,0.2,0.8,0.4,1.3,0.4c0.4,0,0.8-0.1,1-0.3l0.1-0.1l0.1,0c0.5,0.1,0.9-0.1,1-0.4
						c0.1-0.2,0.1-0.5,0-0.8c-0.1-0.1-0.1-0.2,0-0.4c0.1-0.1,0.2-0.2,0.3-0.2c0,0,0.1,0,0.2,0c0.2,0,0.4,0.1,0.6,0.3
						c0.2,0.3,0.3,0.7,0.3,1.1c0.2,0,0.4-0.2,0.6-0.5l0,0c0-0.1,0.1-0.1,0.1-0.2c0.1-0.2,0.1-0.3,0.1-0.4l0-0.2h0.2
						c0.6,0,1-0.1,1.7-0.5c-0.1,0-0.2-0.1-0.3-0.2l0,0c-0.1-0.1-0.3-0.2-0.1-0.5l0,0c0.1-0.1,0.3-0.2,0.6-0.4
						c0.1-0.1,0.2-0.1,0.3-0.2c-0.1-0.1-0.2-0.2-0.2-0.3v-0.1l0,0c0.1-0.2,0.3-0.3,0.4-0.4c0,0,0.1-0.1,0.1-0.1
						c-0.2,0-0.3-0.1-0.3-0.3v-0.1l0.1-0.1c0,0,0.1-0.1,0.3-0.2c0.2-0.1,0.5-0.4,0.7-0.6h0c-0.3,0-0.5-0.1-0.7-0.2l-0.1-0.1l0.1-0.1
						c0.1-0.2,0.3-0.4,0.4-0.5c-0.1,0-0.2-0.1-0.3-0.1l0,0l0,0c-0.1-0.2,0-0.4,0.1-0.7c0.1-0.2,0.2-0.3,0.2-0.5c0,0,0,0,0,0
						c0,0-0.1,0-0.1,0c-0.2,0.1-0.3,0-0.4-0.1c-0.1-0.2,0-0.3,0.1-0.5c0-0.1,0.1-0.2,0.2-0.3c-0.2,0.1-0.4,0.2-0.6,0.3
						c-0.5,0.2-1,0.4-1.6,0.4c-0.1,0-0.2,0-0.3,0l-0.1,0l-0.1-0.1c0,0-0.1-0.1-0.1-0.2c-0.1-0.2-0.3-0.6-0.9-0.6
						c-0.1,0-0.1,0-0.1,0.1c-0.5,0.3-1.2,0.7-1.8,0.7c-0.2,0-0.3,0-0.4-0.1l-0.1,0c0,0-0.1,0-0.1,0c0,0,0,0-0.1-0.1
						c-0.4-0.3-0.5-0.8-0.6-1.3c0-0.1,0-0.1-0.1-0.2c-0.1-0.2-0.2-0.8-0.2-0.9c-0.2-0.3-0.5-0.5-0.8-0.7c-0.5-0.4-1.1-0.8-1.4-1.5
						l0,0c0,0,0-0.1,0-0.1l-0.1-0.4l2.1,0.3l0.3,0l1.4-0.1l0.9-0.2l0.8-0.4l0.5-0.4l0.4-0.6l0-0.1c0,0,0,0,0-0.1l0-0.1
						c0,0,0-0.1,0-0.1l0.1-0.3c0,0,0,0,0-0.1c0,0,0,0,0-0.1l0-0.1c0,0,0-0.1,0-0.1l0.1-0.7l0-0.4l0-0.1c0-0.1,0-0.3,0.2-0.3v0
						l0.2-0.1c0.1,0,0.1-0.1,0.2-0.1l0.2-0.1c0,0,0.1-0.1,0.1-0.1c0,0,0.1,0,0.1-0.1l0.1-0.1c0,0,0,0,0.1-0.1c0,0,0.1-0.1,0.1-0.1
						l0,0c0,0,0,0,0-0.1l0.2,0.1l-0.2-0.1c0,0,0,0,0-0.1l0.2,0.1l-0.2-0.1c0,0,0,0,0-0.1l0.2,0.1l-0.2-0.1c0-0.1,0.1-0.1,0.1-0.2
						l0,0c0,0,0-0.1,0-0.1l0,0c0,0,0,0,0-0.1l0,0c0,0,0-0.1,0-0.1c0-0.1,0-0.1,0-0.1v0c0,0,0-0.1,0-0.1l0,0c0,0,0-0.1,0-0.1l0,0
						c0,0,0-0.1,0-0.1l0-0.1c0-0.1,0-0.2,0-0.3v0c0,0,0-0.1,0-0.1l0,0c0,0,0-0.1,0-0.1c0-0.1,0-0.1,0-0.1l0,0c0,0,0-0.1,0-0.1l0,0
						c0,0,0-0.1,0-0.1c0,0,0,0,0,0c0,0,0,0-0.1,0.1c-0.3,0.2-0.6,0.5-0.9,0.5c-0.5,0-0.8-0.4-1.1-1.4c-0.1,0.2-0.3,0.4-0.6,0.4l0,0
						c0,0,0,0-0.1,0l0,0c-0.4-0.1-0.7-0.6-0.9-1c-0.1-0.1-0.2-0.3-0.3-0.4l0,0.2c0,0,0,0,0,0.1l0,0l0,0.1c0,0,0,0,0,0c0,0,0,0,0,0
						c0,0,0,0,0,0c0,0,0,0,0,0.1c0,0,0,0,0,0c0,0,0,0,0,0l0,0c0,0,0,0,0,0l0,0c0,0,0,0-0.1,0l0,0c0,0,0,0-0.1,0c0,0,0,0,0,0
						c0,0,0,0-0.1,0c-0.1,0-0.1,0-0.1,0l-0.1,0c0,0,0,0-0.1,0l-0.5-0.3l-0.1,0l0.1-0.2l-0.1,0.2l-0.4-0.2l0.1-0.2l-0.1,0.2l0,0
						c0,0.2,0,0.4-0.2,0.6l-0.1,0.1l-0.1,0c-0.1,0-0.3,0-0.4,0c-0.5,0-0.9-0.1-1.2-0.3l0,0.1c0,0.1,0,0.2-0.1,0.3l0,0
						c-0.1,0.1-0.3,0.1-0.4,0.1c0.1,0.2,0.2,0.5,0.1,0.8l0,0c0,0.1,0,0.1-0.1,0.2c0,0,0,0,0,0l0,0c0,0,0,0,0,0l0,0l0,0c0,0,0,0,0,0
						l0,0l-0.2-0.2l0,0l0.2,0.2c0,0,0,0-0.1,0.1l-0.3,0.2l-0.2,0.1c0,0,0,0,0,0l0,0c0,0,0,0-0.1,0l0,0c0,0,0,0-0.1,0
						c0,0-0.1,0-0.1,0l-0.1,0l-0.3,0c0,0,0,0-0.1,0c0,0-0.1,0-0.1,0l-0.1,0c0,0,0,0-0.1,0l0,0c0,0,0,0,0,0c0,0,0,0,0,0c0,0,0,0,0,0
						L52.3,46c0,0,0,0,0,0l0,0c0,0,0,0,0,0c0,0,0,0,0,0c0,0,0,0,0-0.1c0-0.1-0.1-0.2,0-0.3c0.1-0.2,0.4-0.3,0.7-0.3c0,0,0,0,0,0
						c-0.1-0.2-0.3-0.5-0.1-1c0.1-0.3,0.5-0.6,1-0.8c0.7-0.4,1.4-0.8,1.5-1.3c-0.1,0-0.3,0.1-0.4,0.1c-0.3,0.1-0.6,0.2-0.9,0.2
						c-0.2,0-0.4-0.1-0.6-0.2c-0.1-0.1-0.2-0.3-0.2-0.4c-0.8,0.6-1.7,0.8-2.4,0.7l0,0c-0.4-0.1-0.7-0.4-1-0.8
						c-0.4-0.4-0.9-0.8-1.5-1v0.8h-0.2c-0.4,0-0.9,0-1.2,0.1c0.5,0.1,0.9,0.2,1.1,0.9c0.2,0.6-0.4,1-1.1,1.4
						c-0.5,0.3-1.1,0.6-1.5,1.1L45.3,45l-0.2-0.1c-0.2-0.1-0.4-0.3-0.6-0.5c-0.1-0.1-0.2-0.2-0.3-0.3h-0.5l0.3-0.4
						c0.3-0.3,0.4-0.6,0.4-0.9c0-0.3-0.1-0.6-0.2-0.7c0-0.1-0.1-0.1-0.1-0.2C44.1,42,43.8,42,43.5,42c-0.5,0-0.8-0.1-0.9-0.4
						c0-0.1,0-0.2,0-0.3c-0.1,0-0.1,0-0.2,0l-0.1,0c-0.7,0-1.6,0-2.2,0.4L39.9,42l-0.1-0.2c-0.5-0.6-1.2-1.1-1.9-1.2l-0.1,0
						l-0.1-0.1c0,0,0,0-0.1-0.1c-0.2,0.4-0.5,0.6-1,0.6c0,0,0,0.1,0,0.1c0,0.1,0.1,0.2,0.1,0.3v0.3l-0.3-0.1c0,0-0.3-0.1-0.6-0.1
						c-0.2,0-0.4,0-0.6,0.1l0,0h0c-0.1,0-0.2,0-0.3,0c0,0,0,0.1,0,0.2l0,0c-0.1,0.5-0.6,0.8-0.9,1c0,0,0,0-0.1,0
						c0.1,0.1,0.2,0.2,0.3,0.4c0.1,0.2-0.1,0.5-0.7,1c0,0,0,0,0,0c0.1,0,0.2,0.1,0.3,0.1c0.3,0.2,0.3,0.4,0.3,0.4
						c-0.1,0.2-0.3,0.4-0.4,0.6c-0.2,0.2-0.3,0.3-0.4,0.5c0.1,0,0.2,0,0.3,0.1l0.3,0.1l-0.2,0.2c0,0-0.1,0.1-0.1,0.1
						c-0.3,0.4-0.5,0.9-0.7,1.5l0.2,0l0,0.2c0,0.4-0.1,0.7-0.3,1l0,0l0,0c-0.1,0.1-0.1,0.1-0.2,0.1c-0.4,0-0.8-0.7-1-1.1
						c-0.2-0.3-0.5-1.1-0.5-1.9c0-1.9,0.3-2.3,0.5-2.5c0.1-0.1,0.1-0.1,0.1-0.2c0-0.2-0.1-0.3-0.3-0.4c-0.2-0.1-0.4-0.2-0.5-0.4
						c-0.3-0.5-0.8-0.7-1.4-0.7c-0.1,0-0.3,0-0.4,0.1c0.2,0.1,0.4,0.2,0.6,0.6c0.1,0.3,0,0.5-0.1,0.5c0,0,0,0.1,0,0.1v0.2H29
						c-0.1,0-0.1,0-0.2,0c-0.2,0-0.3,0-0.5-0.1c-0.3-0.2-0.8-0.4-1.2-0.4c-0.2,0-0.4,0.1-0.6,0.2l-0.1,0.2l0.1-0.2l0.2,0.1
						c0,0,0,0,0.1,0c0,0,0,0,0.1,0l0,0c0,0,0.1,0,0.1,0l0.2,0.1c0,0,0,0,0.1,0l0,0c0,0,0,0,0.1,0.1c0,0,0,0,0,0c0,0,0,0,0,0.1l0,0.1
						c0,0,0,0,0,0.1c0,0,0,0,0,0.1c0,0,0,0,0,0.1c0,0,0,0,0,0.1c0,0,0,0,0,0.1l0,0.1c0,0,0,0.1,0,0.1l0,0.1c0,0.1,0,0.1,0,0.2l0,0
						c0,0,0,0,0,0c0,0,0,0,0,0c0,0,0,0,0,0c0,0,0,0,0,0l0,0c0,0,0,0,0,0l-0.1,0.1c0,0,0,0,0,0c0,0,0,0,0,0l0,0c0,0,0,0,0,0l-0.1,0
						l-0.1,0c0,0,0,0,0,0c0,0,0,0,0,0l-0.1,0c0,0,0,0,0,0L26.7,45l0.1-0.2L26.7,45l-0.1,0c0,0,0,0,0,0l-0.1-0.1l0.1-0.2l-0.2,0.2
						l0,0l0.1-0.2l-0.2,0.2l0,0l0.2-0.2l-0.2,0.2l0,0c0,0.1,0,0.1,0,0.2l0,0.1c0,0.4,0.1,0.9,0.5,1c0,0,0,0,0.1,0c0,0,0,0,0.1,0
						c0.3,0,0.4,0.3,0.4,0.4c0,0.1,0,0.1,0.1,0.1c0,0,0,0,0,0l0,0c0,0,0,0,0.1,0c0,0,0,0,0,0c0.1,0,0.1,0,0.1,0c0,0,0,0,0.1,0l0.3,0
						c0,0,0.1,0,0.1,0c0.1,0,0.2,0,0.3,0.1l0,0l0,0l0,0c0,0,0,0,0,0c0,0,0,0.1,0.1,0.1l0,0c0,0,0,0,0,0.1l0,0c0,0,0,0,0,0.1l0,0
						c0,0,0,0,0,0.1l0,0c0,0,0,0,0,0.1l0,0c0,0,0,0,0,0.1l0,0c0,0,0,0,0,0c0,0-0.1,0.1-0.1,0.1l-0.1,0c0,0-0.1,0-0.1,0l-0.1,0
						c0,0,0,0,0,0l-0.1,0l-0.1,0c0,0,0,0-0.1,0l-0.1,0l0-0.2l0,0l-0.1,0.2l0-0.2l0,0.2l0,0c0,0.1,0,0.2,0.1,0.3
						c0.2,0.2,0.4,0.3,0.7,0.3c0,0,0.1,0,0.1,0c0.2,0,0.3,0.1,0.4,0.3c0.1,0.2,0,0.5-0.1,0.6l0,0c-0.2,0.1-0.4,0.2-0.6,0.3
						c-0.4,0.2-0.7,0.4-0.9,0.6c0.4,0,0.5,0.2,0.5,0.4c0,0.3-0.1,0.5-0.3,0.7c0.2,0,0.3,0.1,0.4,0.2c0.2,0.3-0.1,0.6-0.3,0.8
						c-0.1,0.1-0.2,0.2-0.3,0.4c0.1,0,0.2,0,0.3,0c0.5,0,0.8,0.2,0.9,0.7l0,0c0,0.2-0.1,0.5-0.2,0.7c0.1,0,0.2,0,0.3,0
						c0.3,0,0.4,0.1,0.4,0.2c0.2,0.2-0.1,0.4-0.3,0.6c-0.1,0.1-0.2,0.2-0.3,0.3c0.2,0,0.4,0,0.7,0l0.1,0l0,0.1
						c0.1,0.2,0.1,0.4,0,0.5c-0.1,0.2-0.4,0.4-0.7,0.5c0.2,0.1,0.5,0.1,0.8,0.1c0.5,0,1.1-0.1,1.4-0.3l0.3-0.1l0.1,0.3
						c0.2,0.7,0.8,0.9,1.3,1c0.2,0.1,0.4,0.1,0.4,0.3v0.1l-0.1,0.1c-0.4,0.3-0.7,1-0.6,1.3l0,0c0.1,0.7-0.1,1.3-0.5,1.8
						c-0.4,0.4-0.9,0.6-1.5,0.6c-0.8,0-1.7-0.1-2-1c-0.2-0.5-0.5-0.6-0.9-0.3l-0.1,0.1L27,60.1c-0.1-0.1-0.2-0.1-0.4-0.1
						c-0.4,0-0.9,0.3-1.2,0.6c0.5,0.1,1,0.3,1.2,0.7c0.1,0.2,0.1,0.5-0.3,0.9l-0.1,0.1h-0.1c-0.6,0-1,0.3-1.1,0.9
						c0.3-0.1,0.6-0.1,0.9-0.1c0.9,0,1.1,0.4,1.1,0.6c0.1,0.5-0.5,1.1-1.3,1.4c0.3,0.2,0.6,0.3,0.9,0.3c0.3,0,0.6-0.1,1-0.3
						c0.1,0,0.2-0.1,0.3-0.1c0.2-0.1,0.4-0.1,0.5,0l0.1,0c0.3,0.1,0.4,0,0.5-0.4c0.1-0.2,0.1-0.3,0.3-0.4c0.1-0.1,0.2-0.1,0.3-0.1
						c0.1,0,0.2,0,0.3,0.1c0.1,0.1,0.2,0.2,0.2,0.2l0,0c0,0,0,0.1,0,0.1c0,0.1,0,0.1,0,0.1c0,0,0,0.1,0,0.1c0,0,0,0.1,0,0.1l0,0
						c0,0,0,0.1,0,0.1c0,0,0,0.1,0,0.1l0,0c0,0,0,0,0,0l0,0l0,0c0,0,0,0,0,0l0.1,0.2l0-0.2l0,0l0.1,0.2l0-0.2l0.1,0.2l-0.1-0.2
						l0.1,0l0.1,0.2l-0.1-0.2L30.3,65.1z M46.8,45.4c0.4-0.5,1-0.8,1.6-0.8c0.2,0,0.4,0,0.6,0.1c0.4,0.2,0.7,0.6,1,0.9
						c0.4,0.4,0.7,0.7,1.2,1l0.1,0.1v0.1c0,0.1,0,0.3-1.2,0.7c-0.3,0.1-1.2,0.3-1.7,0.3c-1.3,0-1.9-0.5-1.9-1.5
						C46.4,46,46.5,45.7,46.8,45.4z M44.6,48L44.6,48l0.4-0.5l0.1,0.3c0.4,0.8,1.2,1.2,2.3,1.2l0,0c0.3,0,0.7,0,1.1-0.1
						c1.1-0.2,2.4-0.5,3.6-0.8c1.7-0.5,3.4-0.9,4.7-0.9c0.9,0,2.8,0.4,2.8,1.7c0,0.8-0.3,1.3-0.9,1.8l0,0c-1,0.7-3.6,0.7-3.6,0.7
						c-0.6,0-2.2,0-2.9-0.6c-0.4-0.3-0.5-0.3-0.5-0.3c-0.4-0.1-0.7-0.2-1.1-0.2c-0.9,0-1.9,0.3-2.9,0.5c-0.9,0.2-1.8,0.5-2.6,0.5
						c-0.1,0-0.2,0-0.2-0.1C44.7,50.8,44.5,48.7,44.6,48z"/>
					
						<radialGradient id="SVGID_8_" cx="36003.8984" cy="-41550.6094" r="0" gradientTransform="matrix(8.000000e-02 0 0 7.730000e-02 -2826.6501 3257.8772)" gradientUnits="userSpaceOnUse">
						<stop  offset="0" style="stop-color:#F7EFCE"/>
						<stop  offset="0.7506" style="stop-color:#C7B23A"/>
						<stop  offset="0.9693" style="stop-color:#B8A300"/>
					</radialGradient>
					<polygon class="st8" points="53.7,46 53.7,46 53.7,46 					"/>
					
						<radialGradient id="SVGID_9_" cx="35988.2891" cy="-41553.4609" r="0" gradientTransform="matrix(8.000000e-02 0 0 7.730000e-02 -2826.6501 3257.8772)" gradientUnits="userSpaceOnUse">
						<stop  offset="0" style="stop-color:#F7EFCE"/>
						<stop  offset="0.7506" style="stop-color:#C7B23A"/>
						<stop  offset="0.9693" style="stop-color:#B8A300"/>
					</radialGradient>
					<polygon class="st9" points="52.4,45.8 52.4,45.8 52.4,45.8 					"/>
					
						<radialGradient id="SVGID_10_" cx="36022.6523" cy="-41464.2969" r="0" gradientTransform="matrix(8.000000e-02 0 0 7.730000e-02 -2826.6501 3257.8772)" gradientUnits="userSpaceOnUse">
						<stop  offset="0" style="stop-color:#F7EFCE"/>
						<stop  offset="0.7506" style="stop-color:#C7B23A"/>
						<stop  offset="0.9693" style="stop-color:#B8A300"/>
					</radialGradient>
					<polygon class="st10" points="55.2,52.7 55.2,52.7 55.2,52.7 					"/>
					
						<radialGradient id="SVGID_11_" cx="36056.1836" cy="-41572.75" r="0" gradientTransform="matrix(8.000000e-02 0 0 7.730000e-02 -2826.6501 3257.8772)" gradientUnits="userSpaceOnUse">
						<stop  offset="0" style="stop-color:#F7EFCE"/>
						<stop  offset="0.7506" style="stop-color:#C7B23A"/>
						<stop  offset="0.9693" style="stop-color:#B8A300"/>
					</radialGradient>
					<polygon class="st11" points="57.8,44.3 57.8,44.3 57.8,44.3 					"/>
					
						<radialGradient id="SVGID_12_" cx="35904.6641" cy="-41315.2422" r="0.2259" gradientTransform="matrix(8.000000e-02 0 0 7.730000e-02 -2826.6501 3257.8772)" gradientUnits="userSpaceOnUse">
						<stop  offset="0" style="stop-color:#F7EFCE"/>
						<stop  offset="0.7506" style="stop-color:#C7B23A"/>
						<stop  offset="0.9693" style="stop-color:#B8A300"/>
					</radialGradient>
					<path class="st12" d="M45.7,64.2C45.7,64.2,45.7,64.2,45.7,64.2L45.7,64.2C45.7,64.2,45.7,64.2,45.7,64.2L45.7,64.2z"/>
					
						<radialGradient id="SVGID_13_" cx="35683.6602" cy="-41533.1641" r="0" gradientTransform="matrix(8.000000e-02 0 0 7.730000e-02 -2826.6501 3257.8772)" gradientUnits="userSpaceOnUse">
						<stop  offset="0" style="stop-color:#F7EFCE"/>
						<stop  offset="0.7506" style="stop-color:#C7B23A"/>
						<stop  offset="0.9693" style="stop-color:#B8A300"/>
					</radialGradient>
					<polygon class="st13" points="28,47.4 28,47.4 28,47.4 					"/>
					
						<radialGradient id="SVGID_14_" cx="35664.8359" cy="-41581.8125" r="0" gradientTransform="matrix(8.000000e-02 0 0 7.730000e-02 -2826.6501 3257.8772)" gradientUnits="userSpaceOnUse">
						<stop  offset="0" style="stop-color:#F7EFCE"/>
						<stop  offset="0.7506" style="stop-color:#C7B23A"/>
						<stop  offset="0.9693" style="stop-color:#B8A300"/>
					</radialGradient>
					<polygon class="st14" points="26.5,43.6 26.5,43.6 26.5,43.6 					"/>
					
						<radialGradient id="SVGID_15_" cx="35678.3906" cy="-41533.6484" r="0" gradientTransform="matrix(8.000000e-02 0 0 7.730000e-02 -2826.6501 3257.8772)" gradientUnits="userSpaceOnUse">
						<stop  offset="0" style="stop-color:#F7EFCE"/>
						<stop  offset="0.7506" style="stop-color:#C7B23A"/>
						<stop  offset="0.9693" style="stop-color:#B8A300"/>
					</radialGradient>
					<polygon class="st15" points="27.6,47.3 27.6,47.3 27.6,47.3 					"/>
				</g>
				<path id="Black_Outline_18_" class="st16" d="M64.6,60c-0.3,0-0.8,0.1-1-0.1c0.3-0.5,0.6-0.4,0.6-0.6c-0.1-0.1-0.4-0.1-0.5-0.2
					c-0.1-0.2,0.4-0.7,0.3-1.2c-0.1-0.1-0.2,0-0.4,0c-0.4,0.1,0.5-0.7,0.1-1c-0.9,0.3-1.5,0.9-2.6,0.8c-0.1-0.1-0.2-0.8-1.1-0.9
					c-0.1,0-0.2,0-0.3,0.1c-0.6,0.4-1.6,0.9-2,0.5c-0.3-0.2-0.5-0.8-0.6-1.3c-0.1-0.3-0.2-1-0.3-1.2c-0.5-0.8-1.9-1.1-2.3-2.3
					c2.3,0.5,6.8,0.5,6.7-3.7c0-0.1,0-0.1,0.1-0.2c0.4-0.2,1.7-0.8,1.4-2.3c0,0,0-0.2,0-0.3c0-0.3,0-0.6,0.2-0.9
					c0.1-0.1,0.2-0.2,0.2-0.2c-0.6-0.5-1.7,2.4-2.4-0.7c0-0.1-0.1-0.3-0.3-0.2c0,0.3-0.3,0.7-0.5,0.6c-0.6-0.2-1.2-1.7-1.7-1.6
					c0.1,0.6,0.3,1.1-0.1,1.1c0,0-0.1,0-0.1,0c-0.5-0.1-0.9-0.6-1.4-0.7c-0.1,0.3,0.1,0.5-0.1,0.7c-0.9,0.1-1.4-0.2-1.9-0.4
					c0,0.1,0.1,0.2,0.1,0.4c0,0.1,0,0.1,0,0.1c-0.2,0.2-0.6,0-0.7,0c0,0,0,0,0,0c0,0.2,0.5,0.4,0.3,1C54,45.7,54,45.8,54,45.8
					c-0.3,0.3-1.3,0.6-1.6-0.1c-0.1-0.3,0.8-0.3,0.9-0.4c-0.1-0.2-0.5-0.4-0.3-1c0.1-0.6,2.7-1.1,2.6-2.5c-0.5-0.1-2.2,1-2.1-0.5
					c-0.1,0-0.2,0-0.2,0.1c-0.6,0.5-1.5,0.9-2.4,0.8c-0.8-0.2-1.4-1.6-2.8-1.9v0.9c-0.9,0-1.7,0-1.8,0.5c0.8,0,1.3,0,1.6,0.7
					c0.2,0.8-1.6,1.1-2.6,2.3c-0.3-0.2-0.8-0.9-0.9-0.9c0.3-0.3,0.5-0.7,0.5-1c0-0.3-0.1-0.6-0.2-0.9c-0.1-0.2-0.1-0.3-0.3-0.4
					c-0.6,0.4-2.1,0.2-1.4-0.4c-0.1,0-0.3-0.1-0.6,0c-0.8,0-1.7,0-2.3,0.5c-0.5-0.6-1.3-1.1-2.1-1.2c-0.1-0.1-0.3-0.2-0.4-0.2
					c-0.1,0.6-0.5,0.7-1.2,0.6c0,0.2,0.1,0.5,0.1,0.6c0,0-0.6-0.3-1.4,0c-0.4,0-0.8-0.1-0.9-0.1c0,0.1,0.4,0.4,0.4,0.5
					c-0.1,0.6-0.9,0.8-1.2,1c0.3,0.2,0.4,0.2,0.5,0.5c0.1,0.1-0.8,0.9-0.9,1c0.3,0.1,0.8,0.2,0.8,0.4c-0.3,0.5-0.9,0.9-0.9,1.5
					c0.1,0,0.3-0.1,0.5,0c-0.4,0.5-0.6,1-0.8,1.7c-0.1,0.1,0,0.2,0.1,0.2c0.1,0,0.1,0,0.1,0c0,0.4-0.1,0.6-0.2,0.9
					c-0.3,0.2-1.3-1.5-1.3-2.7c0-2.6,0.5-2.1,0.5-2.6c0-0.6-0.6-0.5-0.9-0.9c-0.5-0.9-1.9-1.1-2.6-0.5c0.4,0.1,0.6,0.1,0.9,0.6
					c0.1,0.3-0.1,0.3-0.1,0.5c-0.2,0-0.4,0.1-0.5,0c-0.5-0.4-1.7-0.9-2.5,0c0.6,0.1,1.2,0.5,1.4,1.1c0,0.1,0,0.1,0,0.2
					c-0.3,0.6-1.1-0.4-1.1-0.4c-0.4,0.5-0.4,1.6,0.4,2c0,0,0.2,0,0.2,0c0.3,0,0.1,0.3,0.3,0.4c0,0,0.2,0.1,0.2,0.1
					c0.2,0,0.5,0,0.7,0c0.1,0,0.2,0,0.2,0.1c0.1,0.1,0.1,0.2,0,0.3c0,0-0.1,0.1-0.2,0.1c-0.2,0.1-0.5,0-0.7,0c0,0-0.1,0.5,0.2,0.7
					c0.2,0.3,0.6,0.4,1,0.4c0.3,0,0.3,0.4,0.1,0.5c-0.8,0.5-1.4,0.6-1.8,1.5c0.4-0.1,0.8-0.1,0.8,0.1c0,0.4-0.3,0.5-0.5,0.8
					c0,0-0.1,0-0.1,0.1c0.3,0.1,0.6-0.1,0.8,0.1c0.2,0.2-0.9,0.9-0.8,1.4c0.5-0.1,1.2-0.2,1.3,0.4c0,0.4-0.3,0.7-0.6,1
					c0.5,0,1-0.2,1.2,0c0.1,0.1-0.8,0.6-0.8,1.1c0.4-0.1,0.6-0.2,1-0.1c0.3,0.5-0.9,0.9-1,0.9c0.4,0.6,2.1,0.5,2.8,0.1
					c0.3,1.1,1.7,1.1,1.7,1.2c-0.4,0.4-0.8,1.1-0.6,1.5c0.1,1.1-0.5,2.1-1.8,2.1c-0.8,0-1.5-0.1-1.8-0.9c-0.3-0.7-0.8-0.7-1.3-0.4
					c-0.8-0.4-1.8,0.3-2.1,1c0.5-0.1,2.1,0.4,1.2,1.2c-0.6,0-1.3,0.4-1.4,1.5c2.8-0.7,2.5,1,0.5,1.5c1.1,1,1.7,0.6,2.7,0.2
					c0.2-0.1,0.3,0,0.4,0c0.8,0.3,0.8-0.7,1-0.8c0.1-0.1,0.3-0.1,0.3,0c0,0,0.1,0.1,0.1,0.1c0.2,0.5-0.3,0.8,0,0.9
					c0.8,0.1,1.5-1,1.5-1.8c0-0.1,0.1-0.2,0.1-0.3c0.1-0.2,0.3-0.4,0.5-0.4c0.5-0.1,1,0.9,3.1,0.3c0-0.1-0.3-0.4-0.1-0.5
					c0.4-0.1,0.8-0.2,1.1-0.4c0.4-0.4,1-0.2,1.4-0.6c-0.1,0-0.4-0.1-0.4-0.2c0.1-0.1,0.9-0.1,0.8-0.4c0,0-0.1,0-0.3-0.1
					c-0.3-0.1,1.8-1,1.8-1.2c-0.1,0-0.8-0.7-0.5-0.9c0.4-0.1,0.9-0.3,1.2-0.6c0.4-0.1,3-0.9,4-1.2c0,0.9,0.1,1.3,0.5,1.6
					c0.3,0.2,0.6,0.4,1.1,0.5c0.8,0.1,1.6-0.1,2.5,0c0.8,0,0.8,1.1-0.1,1.4c-0.5,0.1-1,0.1-1.6,0.1c-0.9-0.1-1.1-0.4-1.4-0.8
					c-0.1-0.1-0.1-0.1-0.4-0.3c-0.4-0.2-0.6-0.2-1-0.4c-0.3-0.2-0.4-0.8-0.9-0.8c-0.3,0-0.5,0.1-0.6,0.2c-0.8-0.5-2.1,0.4-1.9,1.2
					c0.3-0.2,0.9-0.2,1.2,0.4c0,0,0,0.1,0,0.2c0,0.1-0.1,0.3-0.2,0.2c-1.2-0.6-2.1,1-1.7,1.4c0.4-0.3,0.9-0.4,1.4,0
					c0.3,0.1,0.3,0.4,0.3,0.6c-0.8,0.2-1.2,0.5-1.4,1.8c0,0.2,0.1,0.1,0.1,0.1c0.6-0.5,1.3-0.5,1.9-0.5c0.4,0.4,0.9,0.5,1.3,0.2
					c0.5-0.4,1-1.1,1.3-1.2c0.1,0,0.2-0.1,0.3,0c0.1,0.1,0,0.4,0,0.4c-0.1,0.3-0.4,0.5-0.6,0.7c0,0.1,0.2,0.3,0.6,0.3
					c0.5,0,0.8,0,1.2-0.3c0.1-0.1,0.1,0,0.1,0s0.1,0,0,0.1c0,0.2-0.3,0.5-0.2,0.5c0.6,0.1,1.2,0,1.4-0.5c0.3,0.3,0.4,0.6,0.8,0.8
					c0-0.4,0.1-0.9,0.5-1.1c0,0.2,0.4,1.2,0.6,1c0-0.1,0.1-0.4,0.3-0.6c0-0.1,0.1-0.1,0.2-0.1c0.1,0,0.4,0.9,0.7,0.8
					c0.1-0.4,0.5-1,0.6-1.1c0.5,0.1,1.3,0.4,1.8,0.2c-0.5-0.6-0.6-0.9-0.6-1.5c0-0.5,0.6-0.6,0.9-1c0.3-0.4,0.4-0.5,0.4-0.9
					c-0.1-0.5-0.8-0.8-1.2-1.1c-0.5-0.5-0.1-1.3-0.1-1.4c0-0.1,0.1-0.1,0.1-0.1c0.6,0.5,1.2,0.9,1.7,1.2c0.6,0.5,1.5,0.6,2.3,0.5
					c0.9-0.1,2.7,0,2.7,1c0,0.5-0.6,1.2-1.2,1.1c-0.4-0.3-0.4-1-0.9-1.1c-0.3-0.1-0.6,0.1-0.9,0.4c-0.9-0.4-1.8-0.2-2.5,1
					c0,0.2,0.3,0.1,0.4,0.1c0.5-0.1,1.2,0,1.5,0.4c0,0.1-0.1,0-0.5,0.6c-0.6,0.1-1.3,1.1-1.3,2c0,0.1,0,0.1,0.1,0.1
					c0.6-0.4,1.3-0.6,2.1-0.6c0.1,0.1,0.1,0.4,0.1,0.5c-0.5,0.2-1,0.4-1.5,0.4c-0.1,0-0.1,0.2,0,0.2c0.8,0.7,2.3,0.7,2.8,0.2
					c1.2,0.1,1.7-0.7,1.3-1.5c-0.1-0.1,0-0.2,0.1-0.2c0.6-0.1,0.9,0.7,0.8,1.4c0.7,0.2,1.3-0.7,1.4-1.2c0.8,0,1.3-0.1,2.2-0.9
					c-0.2,0-0.5-0.1-0.7-0.2c-0.1-0.1-0.2-0.1-0.1-0.2c0.1-0.2,0.8-0.5,1.1-0.7c0-0.1-0.3-0.3-0.3-0.4c0.1-0.2,0.8-0.4,0.8-0.7
					c0,0-0.5,0-0.5-0.1C63.4,61.2,64.3,60.5,64.6,60z M27.1,45.9C27.1,45.9,27,46,27.1,45.9c-0.4,0.1-0.8-0.8-0.7-0.9
					c0.1,0,0.1,0.4,0.8,0.5C27.2,45.5,27.1,45.8,27.1,45.9z M26.3,63C26.3,63,26.2,63,26.3,63c-0.4-0.1-0.6,0-1,0.2
					c0.1-0.5,0.9-0.8,1-0.6V63z M41,61.5c0,0.1-0.1,0.1-0.2,0c0,0-0.2-0.1-0.2-0.1c-0.3-0.1-0.6-0.1-0.8,0c0.1-0.4,0.8-0.6,1.2-0.5
					C41.1,61.1,40.9,61,41,61.5z M41.3,63.6c-0.6,0-0.8,0.1-1.1,0.3c0-0.2,0.7-0.8,1.1-0.8c0.1,0,0.1,0,0.1,0.1c0,0.2,0,0.2,0.1,0.4
					H41.3z M54.2,64.7c0-0.2,0.4-1,0.8-1c0,0.3,0.1,0.5,0.3,0.8C55.3,64.5,54.4,64.5,54.2,64.7z M46,44.6c0.8-0.7,2.2-1.1,2.2-1.9
					c0.1-1-0.9-1.1-1-1.1c0.4-0.2,1.3,0.1,1.5,0.6c0.1,0.1,0.1-0.9-0.1-1.4c0,0,0.1,0,0.3,0.1c1,0.7,1,1.7,0.6,2.4
					c0,0.1,0.2,0.3,0.3,0.1c0.5-1,1.7-0.9,2.6-1.2c0,0,0.1,0,0.1,0c0.1,0,0.1,0.1,0.1,0.1c-0.2,0.1-0.4,0.3-0.5,0.5c0,0,0,0,0,0.1
					c0,0.1,0.1,0.1,0.3,0.1c1.7,0,2.6-0.7,2.7-0.6c0,0.1-0.3,0.7-2.7,1.4c-0.5,0.8,0.4,1.4,0.3,1.5c-0.6,0.1-1-0.3-1-0.9
					c0-0.1,0-0.1-0.1-0.1c0,0-0.1,0-0.1,0.1c-0.6,0.9,0.6,2.1,1.5,2.3c0,0,0,0,0,0.1c0,0-0.2,0-0.4,0c-2.6-0.5-2.1-2.5-4.3-2.4
					c-0.1,0-0.2,0-0.4,0.1c-0.6,0.2-1.6,0.9-1.8,1.7c-0.1,0.7,0.4,1.6,1,1.9c1.8,0.5,3.2-0.4,4.8-1c0.8,0.2,1.5,0.1,1.9-0.3
					c0,0-0.5-0.1-0.6-0.4c0,0,0.2,0,0.2,0c0.8-0.1,1.2-0.4,1.1-1.4c0.6,0,1.3,0.8,1.4,1c0.4,0-0.2-1.1-0.4-1.4
					c0.8,0.2,1.4,0.4,1.8,1.2c0.4,0-0.3-1.6-0.1-1.5c1.3,0.6,1.2,1.8,1.3,1.6c0.4-0.5,0.1-1,0.3-1.4c0.8,0.4,1.4,0.8,1.1,1.6
					c0,0.1,0,0.1,0,0.1c0,0.1,0.1,0.1,0.1,0.1c0.3,0,0.6-0.8,0.6-0.9c0.4,0.5,0.6,1.1,0.4,1.6c0,0.1-0.1,0.1-0.1,0.2
					c0,0,0,0.1,0,0.1c0.1,0.1,0.2,0,0.3,0c0.6-0.4,0.5-1.1,0.9-1.4c0.4,1.3,0.1,2.1-1.1,2.4c-0.2,0.1-0.3,0.2-0.3,0.2
					c0.1,0.6,0,1.2-0.3,1.8c-0.4,1-1.2,1.4-2.1,1.7c-1.3,0.5-3.9,0.4-4.9-0.4c-0.2-0.1-0.2-0.2-0.4-0.4c1.7,0.5,6.1,0.7,6.8-1.6
					c0.6-1.6-0.9-2.7-2.2-2.9c-2.7-0.2-5,0.9-8.3,1.9c-1.5,0.4-4.3,0.3-4.3-1.9C45,45.9,45.3,45.2,46,44.6z M51.1,46.8
					c0,0.1-1.9,0.8-2.7,0.8c-1.4,0-1.7-0.6-1.7-1.2c-0.1-0.8,1.3-1.9,2.2-1.4C49.6,45.4,50.2,46.3,51.1,46.8z M44.9,48.1l0.1-0.1
					c0.6,1.4,2.2,1.5,3.6,1.2c2.6-0.4,6.1-1.7,8.3-1.7c0.8,0,2.6,0.4,2.6,1.5c0,0.7-0.3,1.1-0.8,1.6c-0.8,0.5-2.7,0.6-3.5,0.6
					c-0.6,0-2.1,0-2.8-0.5c-0.1-0.1-0.4-0.3-0.5-0.4c-0.4-0.1-0.7-0.2-1.2-0.2c-1.8,0-3.9,1-5.4,1C45,51.1,44.7,48.8,44.9,48.1z
					 M44.7,47.1c0,0.1,0,0.1-0.1,0.1c-0.1,0-0.4-0.1-0.5-0.6c-0.1-0.5-0.6-0.9-1.2-1c0.1-0.2,0-0.5,0-0.7c0.4-0.1,0.8-0.1,1,0.1
					c0.4,0.3,0.1,0.9,0.6,1.9C44.6,46.9,44.7,46.9,44.7,47.1z M40,54.2c-0.6-0.5-0.8-0.7-1-1.4c-0.1-1.1,0.4-2.2-0.1-3.4
					c0-0.1-0.3-0.4,0-0.4c0.3-0.1,0.5-0.2,0.6-0.4c0.5,0.5,0.5,2.1,0.5,2.6C39.8,52.4,39.6,52.9,40,54.2z M38.3,56.2
					c-0.9-0.1-1.2-1.4-0.9-2.9c0.1-1.1,0.8-1.9,0.6-3.2c0.1,0,0.4-0.4,0.4-0.6c0.9,1.9-0.9,4.2,0.6,5.7c-0.9,0.2-1.2-0.9-1.2-0.6
					C37.8,55.1,38,55.7,38.3,56.2z M37,56.7c-0.8-0.7-0.9-2.5-0.9-3.5c0.1-0.6,0.4-2,0.8-2.6c0,0,0,0.1,0.1,0.1
					c0.4,0,0.4-0.1,0.8-0.4C37.8,52.7,36.4,52.3,37,56.7z M35.7,53.5c-0.1,0.6-1.6,2.1-3.1,1.9c3.7-2.2,2.2-4.1,3.1-5.5
					c0.3-0.1,0.4-0.5,0.8-0.5c0,0.5,0.4,0.7,0.2,1C36.4,51.2,35.8,52.7,35.7,53.5z M36,55.5c-0.3,0.3-0.4,0.3-0.6,0.8
					c0,0-0.4-1-0.1-1.5c0.1-0.1,0.4-0.4,0.5-0.6C35.8,54.6,35.8,55.2,36,55.5z M32.2,54.1c1.4-1,1.8-2,2.8-3.1c0,0.5,0,1.4-0.5,2.1
					C34,53.8,32.7,53.9,32.2,54.1z M39.6,47.2c-0.1,0-0.1,0-0.3,0.1c0,0.4-1,0.1-1.1,0v-0.5c0.1-0.1,0.3,0.4,0.5,0.4
					c0.3,0.1,0.3,0,0.5-0.2c0.1,0,0-0.1,0-0.1c-0.2-0.4-0.4-1-0.1-1.5c0.1,0,0.3,0,0.3,0c0.3,0.2,0,0.7,0.3,0.9
					c0.1,0.1,0.3,0.3,0.4,0.3c0.4-0.1,0.1-0.5,0.3-0.9c0.1-0.1,0.4-0.4,0.8-0.4c0,0.1,0,0.2,0.1,0.4c0,0.1,0.4,0.3,0.1,0.4
					c-0.2,0.4-0.4,0.9-0.5,1.4c-0.3,0.4-1.3,0.7-2.1,1.2c-0.1-0.1,0-0.4-0.1-0.7c0.3,0,0.5,0,0.8-0.1c0.1,0,0.5,0.1,0.6-0.1
					C40,47.3,39.8,47.1,39.6,47.2z M37.5,49.2c0.2-0.4,0.5-1.6,0.6-1.4c0.5,1-0.6,2.3-0.9,2.1c-0.3,0-0.5-1.5,0.3-2.2
					c0-0.1,0.1,0,0.1,0c-0.1,0.5-0.3,1-0.3,1.5H37.5z M38.8,46.4c0.1,0.2,0.3,0.4,0,0.5c0,0-0.1,0.1-0.1,0l-0.4-0.4
					c-0.3-0.2-0.5,0-0.8,0c0-0.1,0-0.1,0-0.2c0.6-0.1,0.9-0.6,1.1-1.1h0.1C38.9,45.3,38.4,45.9,38.8,46.4z M41.1,44.9
					c-0.4-0.1-1.5,0.4-2.1,0c0.1-0.4,0.5-1,1-1c0.4-0.1,1,0.4,1.1,0.7c0,0,0.1,0,0.3-0.1c0.3,0,0.5,0,0.8,0.2c0.1,0.1,0.1,0.3,0,0.5
					c-0.1,0.1-0.6,0.6-0.9,0.1C41.3,45.3,41.4,45.1,41.1,44.9z M38.8,44.8c-0.4-0.1-1.6-1.2-1.7-1.2c0,0-0.1,0.4-0.6,0.5
					c-0.1,0-0.2,0-0.3,0c-0.3-0.2-0.4-0.8-0.1-1.1c0-0.1,0.3-0.1,0.4-0.1c0.2,0,0.4,0.1,0.5,0.4c0.5,0,1.2,0.1,1.5,0.4
					c0.3,0,0.4,0.3,0.4,0.5C38.9,44.3,38.9,44.7,38.8,44.8z M36.5,44.9c0-0.1-0.1-0.5,0.2-0.6c0.1,0,0.3-0.1,0.4-0.2
					c0.1,0,0.3,0.2,0.4,0.4c-0.1,0.4-0.5,0.6-0.4,1c0,0,0.1,0.1,0.3,0.1c0.3-0.1,0.5-0.2,0.6-0.6h0.1c0,0,0.1,0,0.1,0.1
					c0,0.1-0.1,0.4-0.1,0.5c-0.1,0.3-0.5,0.4-0.6,0.5c-0.1,0.1-0.4,0.1-0.4,0.3c0.1,0.2,0.3,0.4,0.4,0.5c0.1,0.1,0.2,0,0.4,0
					c0,0.1-0.1,0.3-0.1,0.5c-0.1,0-0.4-0.1-0.5-0.1c-0.1-0.1-0.3-0.2-0.3-0.4c0-0.1,0-0.4-0.1-0.5h-0.4c-0.1,0.1-0.1,0.1-0.1,0.2
					c0,0.1,0,0.2,0.1,0.2c0.2,0,0.2,0.3,0.4,0.4c0.1,0.2,0.5,0.2,0.2,0.5c-0.1,0-0.1,0.1-0.2,0.2c-0.1,0-0.1-0.1-0.1-0.2
					c-0.2-0.4-0.5-0.7-0.8-1.2C36.1,45.9,36.4,45.4,36.5,44.9z M39.8,48.6c-0.1,0,0.5-0.2,0.6-0.4c0.4,0.6,0.6,1.5,0.6,2.2
					c0.3,0.7,0,1.6-0.1,2.3c-0.9-0.7-0.5-2-0.8-3C40.1,49.3,40,48.9,39.8,48.6z M40.8,47.9c0.1,0,0.1,0,0.3-0.1
					c0.1-0.1,0.2-0.5,0.2-0.4c0.5,0.5,0.9,1.5,0.9,2.5c0.2,1.1,0.8,1.5,0.6,1.5c-0.4-0.1-0.8-0.4-1-0.6
					C41.5,50.3,41.5,49.4,40.8,47.9z M41.5,46.9c-0.1,0,0.1-0.5,0.1-0.5c0.1-0.1,0.3,0,0.4,0.1c1.3,1.1,0.6,3.2,1.9,4.4
					c0.1,0.2-0.8,0-1-0.4C42.2,49.4,42.5,48.6,41.5,46.9z M43.1,47.7c-0.3-0.6-0.7-1.1-1.2-1.5c0.8-0.1,0.8-0.2,0.8-0.2
					c0.4,0,0.9,0.2,1.1,0.7c0.4,1.4,0.1,2.1,0.6,4.1C43.7,50.7,43.5,48.6,43.1,47.7z M44.5,44.3c0,0.1-0.1,0.1-0.1,0.1
					c-0.5,0.2-0.9-0.1-1.4,0.1c-0.1,0.1-0.1-0.1-0.3-0.3c-0.1,0-0.4-0.1-0.4-0.1C43.1,43.8,43.7,43.7,44.5,44.3z M44.5,42.7
					c-0.1,0.3-0.3,0.8-0.7,0.9c0,0-0.2,0-0.2,0c-0.6,0.1-1.1,0-1.7,0.5c-0.1,0-0.1-0.1-0.3,0c-0.1,0.1-0.5-0.2-0.4-0.2
					c1.3-1.2,1.9-1,3.1-1.2C44.4,42.6,44.4,42.7,44.5,42.7z M41.8,42.4c0.2-0.1,1-0.3,1.1-0.3c0.4,0,0.9,0.2,1.3,0.1
					c0.1,0,0.1,0,0.1,0c-0.2,0.4-0.6,0.2-1.3,0.4c-1,0.1-1.3,0.4-1.9,1.1c-0.3,0-0.3-0.1-0.4-0.1C41,42.9,41.3,42.6,41.8,42.4z
					 M41.4,41.5c0,0,0.2,0,0.3,0c0.1,0,0.3,0,0.3,0c0,0.1-0.1,0.2-0.1,0.2c-0.6,0.5-1.3,1.1-1.7,1.8h-0.6
					C39.7,42.7,40.1,41.6,41.4,41.5z M39.6,42.2c-0.1,0.4-0.3,0.6-0.4,1c0,0.1-0.1-0.1-0.5-0.3c-0.4-0.7-0.5-1.2-0.6-2.1
					C38.8,41.3,39.2,41.7,39.6,42.2z M38.3,42.8h-0.8c-0.3-0.5-0.6-1-0.8-1.6C37.8,41.5,38.3,42.3,38.3,42.8z M37,42.4
					c-0.1,0.1-0.3-0.2-0.9,0c-0.1,0-0.3,0-0.5-0.2c-0.2-0.2-0.3-0.1-0.5-0.5C35.8,41.7,36.5,41.7,37,42.4z M35.7,42.6
					c-0.1,0.1-0.3,0.4-0.4,0.5c-0.4,0-0.8-0.1-1.2-0.4C35.2,42,35.8,42.4,35.7,42.6z M34,44c0.4-0.3,0.8-0.4,1.3-0.5V44
					c-0.4,0-0.9,0.1-1.4,0.2C33.7,44.2,33.9,44,34,44z M33.8,45.3c0.4-0.5,1.2-0.8,1.6-0.9c0.1,0,0.2-0.1,0.2-0.1
					c0.2,0,0.2,0.1,0.3,0.3c0.1,0.1,0.1,0.2,0,0.2c0,0.1-0.1,0.2-0.1,0.2c-0.4,0.2-1,0.1-1.9,0.3C33.8,45.4,33.7,45.3,33.8,45.3z
					 M35.7,45.2c-0.1,0.4-0.1,0.5-0.4,1c-1,0.3-0.8,1.4-2.1,1.6c-0.1,0-0.2,0-0.3,0C33.3,46.3,34.7,45.4,35.7,45.2z M35.7,47.3
					c-1.2,0.7-1.2,1.9-2.5,1.6c0,0-0.1,0,0-0.1c1.4-1.2,1.3-1.9,2.2-2.3C35.5,46.8,35.6,47.1,35.7,47.3z M35.8,47.6
					c0.4,0.2,0.5,0.6,0.6,0.9v0.5c0,0.1-0.3,0.1-0.4,0.1c-1.5,0.6-1,2.2-3,3.2H33C34.3,51.2,34.2,48.8,35.8,47.6z M29.5,42.7
					c-0.1-0.2-0.2-0.3-0.5-0.4c0.5-0.1,1,0,1.3,0.5c-0.2,0-0.4,0.1-0.6,0.1C29.6,42.9,29.5,42.8,29.5,42.7z M26.9,43.3
					c0.4-0.1,1,0.1,1.2,0.2c0,0-0.1,0.1-0.1,0.2c-0.1,0.2-0.2,0.4-0.2,0.3C27.3,43.3,26.7,43.5,26.9,43.3z M31.3,55.8
					c0,0,0-0.1-0.1-0.2c-0.1,0-0.1-0.1-0.2,0c-1.2,0.7-1.9,0.5-2.1,0.5c1.3-0.7,1-0.9,1.7-1.9c-0.3-0.4-1,0.5-1.5,0.4
					c0.2-0.1,0.4-0.3,0.6-0.7c0,0,0.1-0.2,0.1-0.3c0.3-0.6,0.7-0.7,0.7-0.7c-0.3-0.2-1.7,0.7-1.7,0.7c0.4-1.2,1-1.5,1.2-2.1
					c0,0,0-0.1,0-0.1c0,0,0,0,0,0c0,0-0.1,0-0.2,0.1c-0.9,0.9-1.5,1.1-2.1,1.1c0.1-0.6,2.1-1,2.3-2.1c0,0,0-0.1,0-0.1
					c-0.1,0-0.4,0.4-0.9,0.5c-0.4,0.1-0.9,0.1-1,0.1c0.5-0.6,0.8-0.7,1.3-1.2c-0.5,0-1.2,0.3-1.7,0.3c-0.1,0-0.1-0.1,0-0.1
					c0,0,0.1-0.1,0.1-0.1c0.8-0.6,1.6-0.5,1.6-1.2c0-0.2-0.1-0.4-0.3-0.6c0,0-0.1-0.1-0.2-0.1c-0.4,0-1.2,0-1-0.5
					c0.8,0.2,1.4-0.1,1.1-0.9c-0.2-0.5-0.7-0.4-1.1-0.3c-0.2,0-0.2,0-0.2,0c-0.3-0.3-0.1-0.8,0.2-0.9c0.1,0,0.1-0.1,0.2-0.1
					c0.3-0.1,0.5,0.3,0.8,0c0,0,0.1-0.2,0.1-0.2c0-0.7-0.8-0.4-0.8-0.8c0.1-0.5,0.8-0.8,1.2-0.8c0.4,0-0.2,0.7,0.5,0.8
					c0.1,0,0.3-0.1,0.4-0.2c0.4-0.5-0.3-0.5-0.2-0.7c0-0.5,1-0.4,1.2-0.2c0.1,0.1,0.3,0.3,0.1,0.5c-0.2,0.2-0.4,0.4-0.5,0.8
					c-0.1,0.2-0.4,3,0,4.2c0.1,0.2,0.1,0.2,0.1,0.2c0.2,0.2,0.6,0.2,0.8,0.4c0.4,0.4,1.4,2.1,1.3,2.2c-0.2,0.4-0.6,0.6-0.9,0.9
					c0,0.2,0.4,0.2,0.6,0.4c0.1,0-0.8,0.9-1.3,1.1c0,0,0,0,0,0.1c0.4,0.4,0.9,0.1,1.3,0.4c-0.2,0.6-0.4,0.6-0.8,1.2
					c0.1,0.2,1.4-0.1,1.7,0C33.7,56.8,31.6,56.9,31.3,55.8z M26.5,60.7c-0.1,0-0.5-0.1-0.8,0c0.3-0.5,0.7-0.5,1.1-0.5c0,0,0,0,0,0
					c0,0.1-0.1,0.2-0.2,0.4C26.6,60.6,26.5,60.7,26.5,60.7z M27,64.5c0.2,0,0.4,0.4,0.4,0.5c0,0-0.1,0.1-0.1,0.1
					c-0.2,0.2-1,0.2-1.3,0.1C26.4,65.2,26.7,64.9,27,64.5C26.9,64.6,27,64.5,27,64.5z M40.6,59.4c0.3-0.4,0.9-0.6,1.2-0.3
					c-0.1,0.1-0.1,0.3-0.2,0.5c0,0.1-0.1,0.1-0.1,0C41.1,59.5,40.9,59.4,40.6,59.4z M44.6,64.1c0.4-0.4,0.5-0.6,0.6-1
					c0.1-0.2,0.3,0,0.5,0.1C46.2,63.5,45,64.3,44.6,64.1z M52.1,60.2c0.3,0.1,0.6,0.5,0.6,0.6c0.1,0.2,0.1,0.5-0.1,0.6
					c-0.5,0.2-1.5,1.2-0.5,2.4c-1.4-0.3-1-1.2-0.6-2.1c0.1-0.1,0-0.2-0.1-0.1c-0.9,0.9-0.6,1.7-1,2.5c-0.5-0.6-0.3-1.6,0.1-2.1
					c0,0,0-0.1-0.1,0c-0.6,0.4-1,1.5-1.3,2.1c-0.5-0.5-0.1-1.7,0-1.8c0,0,0-0.1-0.1,0c-0.6,0.5-0.9,1.2-1.2,2
					c-0.5-0.4-0.4-1-0.4-1.5c-0.4,0.2,0,1.4-0.9,1.7c0,0-0.1,0-0.2,0c-0.2-0.1,0-0.2,0.1-0.3c0.2-0.3,0.3-0.6,0.1-0.8
					c-0.1-0.1-0.3-0.3-0.4-0.3c-0.5-0.4-0.9-0.5-1.4-0.5c-0.5,0.1-1.2,0.5-1.6,1.1c-0.1,0.2-0.4,0.2-0.7,0.1c-0.5-0.1-1-1-0.5-1.4
					c0.3-0.1,0.4,0.3,0.8,0.1c0.2-0.1,0.2-0.8-0.2-0.9c-0.1,0-0.2,0-0.4,0c-0.2,0.1-0.4,0.3-0.5,0.2c0,0-0.1-0.1-0.1-0.2
					c-0.1-0.4,0-1.2,0.5-1.2c0.1,0,0.2,0.1,0.2,0.1c0.1,0.2,0.2,0.3,0.3,0.3c0.6,0,0.5-0.4,0.4-0.7c0-0.1-0.1-0.2-0.2-0.2
					c-0.3,0-0.6,0.1-0.8-0.1c-0.3-0.4,0.2-1,0.6-1c0.5,0,0.4,0.6,0.9,0.7c0.3,0.1,0.7,0.2,1,0.4c0.1,0.1,0.2,0.1,0.3,0.2
					c0.3,1.1,1.9,1,2.8,0.9c1.8-0.2,2.8-1.5,1.6-2.4c-0.8-0.5-1.9-0.1-2.8-0.3c-1.4-0.2-1.7-0.9-1.3-1.9c0.1-0.3,0.7-0.4,0.9-0.5
					c0.2-0.1,0.9-0.6,0.9-0.4c-0.2,0.3-0.4,0.9-0.6,1.4c0,0-0.1,0.1,0,0.2c0.1,0.1,0.2,0.1,0.2,0.1c0.8-0.7,0.8-1,1.8-1.6
					c0.4,0.9,1.4,0.9,1.7,0c0.6,0.6,1.5,1.4,1.4,1.6c-0.1,0.5-0.4,1.2-0.4,1.9C51.1,59.8,51.7,60,52.1,60.2z M54.2,61.9
					c0.1-0.3,1-0.9,1.6-0.5c-0.1,0.1-0.3,0.6-0.3,0.6C54.9,61.8,54.7,61.8,54.2,61.9z M55.1,65.9c0.4,0,0.8,0,1-0.2
					c0.1,0.1,0.3,0.2,0.4,0.4C56.2,66.3,55.2,66.3,55.1,65.9z M60.2,64.5c0,0.2,0,0.6-0.4,0.8c0-0.6,0-0.7-0.5-1.1
					c-0.1-0.1,0.5,0,0.8,0.2C60.2,64.4,60.2,64.4,60.2,64.5z M62.9,61.1c-0.2,0.1-0.5,0.2-0.9,0.2c-0.5,0-1-0.1-1.2,0
					c0.1,0.5,1.4,0.4,2.2,0.4c-0.6,0.6-1.4,0.6-2.3,0.5c0,0,0,0.1,0.2,0.2c0.5,0.2,1.1,0.3,1.5,0.4c-0.4,0.1-0.8,0.4-2.1,0.1
					c0.1,0.4,1.2,0.7,1.7,0.9c-0.4,0.2-0.9,0.4-1.2,0.4c-0.6,0-2.5-0.8-3.1,0.4c0,0.1,0,0.2,0,0.2c0,0.1,0.1,0.1,0.1,0.2
					c0.1,0.1,0,0.3,0,0.4c-0.2,0.4-0.9,0.4-1.2,0.1c-0.1,0-0.1-0.1-0.2-0.3c-0.1-0.2-0.1-0.4,0-0.6c0-0.1,0.2,0,0.2,0
					c0.9,0.1,0.5-0.9-0.3-0.7c-0.2,0.1-0.4,0.3-0.6,0.4c0,0-0.1,0-0.2-0.1c-0.3-0.3-0.2-1.1,0.1-1.2c0.1,0,0.2,0.1,0.2,0.1
					c0.3,0.3,1,0,0.8-0.5c0-0.1-0.1-0.2-0.1-0.2c-0.2-0.2-0.8-0.1-0.6-0.6c0.1-0.3,0.4-0.8,0.8-0.8c0.3,0,0.4,0.4,0.5,0.6
					c0.1,0.1,0.4,0.6,0.8,0.6c1,0,1.8-1.5,1.4-2.5c-0.5-1.4-2.2-0.9-3.5-1.1c-3.3-0.5-4.2-2.4-6.2-4.9c0,0-0.2-0.1-0.2-0.1
					c-0.2-0.1-0.3-0.1-0.5,0.1c-1.5,0.7-2.7,1.4-4.4,2.1c-0.3,0.1-0.5,0.2-0.9,0.4c0.3-0.4,0.8-1,1-1.4c-1,0.5-1.8,1.2-3.2,1.9
					c-0.1,0-0.3,0-0.3-0.1c0.1-0.4,0.4-0.5,0.6-1.2c-0.1-0.1-0.2,0-0.4,0.1c-1.4,1-2.2,1.9-3.5,1.6c0,0.2,0.5,0.7,1.3,1
					c-0.4,0.4-1.7,0.2-2.3-0.1c-0.1,0.6,1,1,1.3,1.1c-0.6,0.5-1.9,0-2.6-0.2c-0.1,0,0,0.1,0,0.1c0.4,0.7,1.9,0.9,2.6,0.9
					c-1,0.5-2.1,0.8-3.2,0.1c-0.3,0.4,1,1.1,1.3,1.2c0,0.2-1.4,0.1-2.3-0.6c-0.1,0.4,1,1.1,1.2,1.2c-0.5,0.5-1.6,0-1.9-0.1
					c-0.1,0-0.2-0.1-0.2-0.1c0,0,0,0,0,0.1c0.1,0.5,0.8,0.8,1.3,1c-1,0.5-1.8-0.1-2.2-0.5c-0.2,0-1.2,0.9-1.2,1
					c-0.1,0.2,0,0.5-0.1,0.9c-0.1,0.2-0.3,0.7-0.5,0.8c0,0-0.1,0-0.1,0c-0.1-0.1,0-0.7-0.2-0.8c-1.2-0.5-1,0.6-1.5,1
					c-0.5,0.2-1.3-0.6-1.3-0.9c0-0.1,0.1-0.4,0.4-0.2c0,0,0.1,0.1,0.1,0.1c0.1,0,0.1,0,0.2,0c0.2-0.1,0.2-0.2,0.2-0.4
					c0-0.4-0.1-0.6-0.6-0.5c-0.1,0.1-0.1,0.2-0.3,0.3c-0.1,0-0.1,0-0.2,0c-0.4-0.4-0.4-1.2-0.1-1.4c0.4-0.1,0.5,0.4,0.9,0.2
					c0.3-0.1,0.3-0.9,0-1c-0.2-0.1-0.6,0.3-0.8,0.1c0,0,0-0.1,0-0.2c0.2-0.5,0.5-1,0.7-1c0.3,0,0.4,0.6,0.8,1
					c0.1,0.1,0.5,0.3,0.6,0.3c0.8,0.4,1.8,0.3,2.4,0c2.3-1,1.3-2.6,2.1-3c1.7-0.7,0.9-1.5,1.6-1.9c0.1,0.1,0.1,0.7,0.5,0.9
					c0.1-0.8,0.3-1.2,1-1c0.2,0.4,0.5,0.7,0.9,1c0.1,0,0.1-0.9,0.1-1.2c0.6,0.5,1.7,0.5,1.5,0.2c-0.1-0.1-0.6-0.7-0.6-1
					c0.6,0.4,1.7,0.1,1.5-0.1c-0.1-0.1-0.3-0.2-0.3-0.4c0.1-0.3,0.6-0.3,0.9-0.3c0-0.5-0.5-1.1,0-1.8c0.4,0.3,0.5,0.5,1,0.5
					c0-0.4-0.1-0.9,0.1-1.2c1.2,0,2.1,0,2.8-0.1c1.7-0.4,3-1,4.8-1.4c0.5-0.1,0.9-0.3,1.4-0.4c0.7,0,1.5,0.6,1.9,1.2
					c0.1,0.2,0.4,0.8,0.5,0.9c0.5,0.6,1,1.1,1.6,1.5c0.5,0.4,1,0.9,1.3,1.5c0.3,0.4,0.4,0.9,0.6,1.4c0.1,0.3,0.4,0.7,0.7,0.8
					c1.3,0.7,2.5-1,3.1-0.4c0,0.1,0.1,0.1,0.1,0.2c0,0,0.1,0.1,0.1,0.2c0.1,0.1,0.2,0.1,0.2,0.1c0.9,0,1.5-0.1,2.3-0.5
					c0.1,0-1,1.4-2.3,1.5c0.3,0.2,2.1-0.1,2.5-0.4c-0.3,0.7-1.3,1.2-2.3,1.1l-0.1,0c0,0,0,0.1,0.3,0.2c0.5,0.1,1.4,0.2,1.8,0.2
					c0,0.3-1.9,0.3-1.9,0.6c1.5-0.2,1.7,0.3,2.3,0C63.5,60.7,63.2,60.9,62.9,61.1z"/>
			</g>
			<g id="Blue_18_">
				<path class="st17" d="M45.8,63.3c-0.2-0.1-0.4-0.3-0.5-0.1c-0.1,0.4-0.3,0.6-0.6,1C45,64.3,46.2,63.5,45.8,63.3z"/>
				<path class="st17" d="M29.5,42.7c0,0.1,0.1,0.2,0.2,0.2c0.2,0.1,0.4-0.1,0.6-0.1c-0.3-0.5-0.8-0.6-1.3-0.5
					C29.2,42.4,29.4,42.5,29.5,42.7z"/>
				<path class="st17" d="M55.7,61.4c-0.5-0.4-1.4,0.2-1.6,0.5c0.5-0.1,0.8-0.1,1.3,0.1C55.4,62,55.6,61.5,55.7,61.4z"/>
				<path class="st17" d="M27.7,44.1c0,0.1,0.1-0.1,0.2-0.3c0.1-0.1,0.2-0.2,0.1-0.2c-0.1-0.1-0.8-0.4-1.2-0.2
					C26.7,43.5,27.3,43.3,27.7,44.1z"/>
				<path class="st17" d="M37.5,47.7c-0.8,0.7-0.5,2.2-0.3,2.2c0.3,0.1,1.4-1.1,0.9-2.1c-0.1-0.2-0.4,1-0.6,1.4h-0.1
					c0-0.5,0.1-1,0.3-1.5C37.6,47.7,37.5,47.6,37.5,47.7z"/>
				<path class="st17" d="M41.2,63.1c-0.4-0.1-1.1,0.5-1.1,0.8c0.4-0.1,0.5-0.3,1.1-0.3h0.1C41.3,63.4,41.3,63.4,41.2,63.1
					C41.3,63.2,41.3,63.1,41.2,63.1z"/>
				<path class="st17" d="M26.8,60.2c-0.4,0-0.9,0-1.1,0.5c0.4-0.1,0.7,0,0.8,0c0.1,0,0.1-0.1,0.1-0.1
					C26.7,60.4,26.8,60.3,26.8,60.2C26.8,60.2,26.8,60.2,26.8,60.2z"/>
				<path class="st17" d="M27,64.5C27,64.5,26.9,64.6,27,64.5c-0.3,0.4-0.6,0.6-0.9,0.7c0.2,0.1,1.1,0.1,1.3-0.1
					c0,0,0.1-0.1,0.1-0.1C27.4,64.9,27.2,64.6,27,64.5z"/>
				<path class="st17" d="M41.5,59.6c0.1-0.1,0.1-0.3,0.2-0.5c-0.3-0.4-0.9-0.1-1.2,0.3c0.3,0,0.5,0.1,0.8,0.2
					C41.5,59.7,41.5,59.7,41.5,59.6z"/>
				<path class="st17" d="M25.3,63.2c0.5-0.2,0.6-0.3,0.9-0.2c0,0,0.1,0,0.1,0v-0.4C26.2,62.4,25.4,62.7,25.3,63.2z"/>
				<path class="st17" d="M41,61c-0.4-0.1-1,0.1-1.2,0.5c0.2-0.1,0.5-0.1,0.8,0c0,0,0.2,0.1,0.2,0.1c0.1,0,0.2,0.1,0.2,0
					C40.9,61,41.1,61.1,41,61z"/>
				<path class="st17" d="M26.4,44.9c-0.1,0.1,0.2,1.1,0.6,1c0,0,0,0,0-0.1c0-0.1,0.1-0.3,0.1-0.4C26.6,45.3,26.6,44.9,26.4,44.9z"
					/>
				<path class="st17" d="M55.1,65.9c0.1,0.4,1.2,0.4,1.4,0.1c-0.1-0.1-0.3-0.2-0.4-0.4C55.8,65.9,55.4,65.9,55.1,65.9z"/>
				<path class="st17" d="M54.9,63.6c-0.4,0-0.8,0.8-0.8,1c0.3-0.1,1.2-0.1,1-0.2C55.1,64.1,54.9,63.9,54.9,63.6z"/>
				<path class="st17" d="M60.1,64.3c-0.3-0.2-0.9-0.3-0.8-0.2c0.5,0.4,0.5,0.5,0.5,1.1c0.5-0.2,0.4-0.6,0.4-0.8
					C60.2,64.4,60.2,64.4,60.1,64.3z"/>
			</g>
		</g>
		<path class="st2" d="M53.3,14.3c-2.3,0.1-3.4-1.4-5.4-1.4c-0.8,0-2,0.2-3.5,1.4c-1.5-1.2-2.7-1.4-3.5-1.4c-2,0-3.1,1.5-5.4,1.4
			c-0.3,0-0.6-0.1-0.9-0.1V22c0.3,0.1,0.6,0.1,0.9,0.1c2.3,0.1,3.4-1.4,5.4-1.4c0.8,0,2,0.2,3.5,1.4v0c0,0,0,0,0,0c0,0,0,0,0,0v0
			c1.5-1.2,2.7-1.4,3.5-1.4c2,0,3.1,1.5,5.4,1.4c0.3,0,0.6-0.1,0.9-0.1v-7.8C53.9,14.2,53.6,14.3,53.3,14.3z"/>
		<g>
			
				<rect x="33" y="22.8" transform="matrix(-1 -1.224647e-16 1.224647e-16 -1 78.2753 46.4256)" class="st18" width="12.3" height="0.9"/>
			
				<rect x="28.7" y="18.4" transform="matrix(6.123234e-17 -1 1 6.123234e-17 14.5712 52.3264)" class="st18" width="9.6" height="0.9"/>
		</g>
		<g>
			<rect x="43.5" y="22.8" class="st18" width="12.3" height="0.9"/>
			
				<rect x="50.6" y="18.4" transform="matrix(6.123234e-17 -1 1 6.123234e-17 36.4852 74.2403)" class="st18" width="9.6" height="0.9"/>
		</g>
		<g>
			<polygon class="st18" points="31.5,20.6 33,19.8 33,21.5 			"/>
			<g>
				<polygon class="st18" points="31.5,17.1 33,16.2 33,18 				"/>
			</g>
		</g>
		<g>
			<polygon class="st18" points="57.3,20.6 55.8,19.8 55.8,21.5 			"/>
			<g>
				<polygon class="st18" points="57.3,17.1 55.8,16.2 55.8,18 				"/>
			</g>
		</g>
		<path class="st19" d="M54.2,13.3l-0.2,0c-0.2,0.1-0.5,0.1-0.7,0.1c-1,0.1-1.8-0.3-2.6-0.6c-0.8-0.4-1.6-0.7-2.7-0.8
			c0,0-0.1,0-0.1,0c-1.1,0-2.3,0.4-3.4,1.2c-1.1-0.8-2.3-1.2-3.4-1.2c0,0-0.1,0-0.1,0c-1.1,0-1.9,0.4-2.7,0.8
			c-0.8,0.4-1.6,0.7-2.6,0.6c-0.2,0-0.5,0-0.7-0.1l-0.2,0v0.4l0.1,0c0.3,0.1,0.5,0.1,0.8,0.1c1.1,0.1,1.9-0.3,2.8-0.7
			c0.8-0.3,1.6-0.7,2.6-0.7c0,0,0.1,0,0.1,0c1.1,0,2.2,0.4,3.3,1.2l0.1,0.1l0.1-0.1c1.1-0.8,2.2-1.2,3.3-1.2c0,0,0.1,0,0.1,0
			c1,0,1.8,0.4,2.6,0.7c0.8,0.4,1.5,0.7,2.5,0.7c0.1,0,0.2,0,0.3,0c0.3,0,0.5-0.1,0.8-0.1l0.1,0V13.3z"/>
		<path d="M72.4,11.4l0,58.1c0,2-1.2,3.9-3,4.7l-25,11.8l-25-11.9c-1.9-0.9-3-2.7-3-4.7v-58H72.4 M73.7,10.2H15.1v59.2
			c0,2.5,1.5,4.8,3.8,5.9l25.5,12.2l25.5-12.1c2.3-1.1,3.8-3.4,3.8-5.9V10.2L73.7,10.2z"/>
		<g>
			<path class="st16" d="M43.5,97.5c-0.5,0-1.3-0.1-1.8,0c-0.1,0-0.1-0.1-0.1-0.1c0.2-0.2,0.3-0.4,0.3-0.6c0-0.6,0-1.1,0-1.6
				c0-0.2-0.2-0.3-0.4-0.5c0-0.1,0.1-0.1,0.1-0.1c0.6,0,1.3,0.1,1.8,0c0.2,0,0.3,0,0.4,0.1c0,0.2,0.1,0.4,0.1,0.6
				c-0.3,0.1-0.3-0.2-0.4-0.3c-0.3-0.2-0.7-0.2-1.1-0.2c-0.1,0-0.1,0.1-0.1,0.1c0,0.2,0,0.5,0,0.7c0.3,0,0.7,0.1,0.9-0.2
				c0.1,0,0.1,0,0.2,0c0.1,0.2,0,0.2,0,0.3c0,0.2,0,0.3-0.1,0.4c-0.1-0.1-0.2-0.4-0.5-0.3c-0.2,0-0.3,0-0.5,0c0,0.3-0.1,0.7,0,1
				c0.2,0.2,0.9,0.2,1.2,0c0.1-0.1,0.2-0.4,0.3-0.4c0.1,0,0.1,0.2,0.1,0.2C43.9,97.1,43.9,97.5,43.5,97.5L43.5,97.5z"/>
			<path class="st16" d="M45.6,97.5c-0.2,0-0.4,0-0.6-0.1c0-0.1,0.1-0.1,0.2-0.2c0.3-0.5,0.1-1.6,0.1-2.4c-0.2-0.1-0.5,0-0.6,0.2
				c-0.1,0.1-0.1,0.3-0.3,0.4c-0.2-0.1,0-0.3-0.1-0.4c0.1-0.1,0-0.2,0-0.3c0.1-0.1,1.8,0,2.5,0c0.3,0,0.1,0.3,0.2,0.4
				c0,0.2,0.1,0.4-0.1,0.5c-0.2-0.1-0.2-0.2-0.3-0.3c-0.1-0.2-0.4-0.2-0.6-0.2c-0.1-0.1-0.1,0.1-0.1,0.1c-0.1,0.6-0.1,1.5,0,2.1
				c0,0.2,0.2,0.2,0.3,0.4C46.1,97.6,45.8,97.5,45.6,97.5L45.6,97.5z"/>
		</g>
		<g>
			<path class="st16" d="M40,92.9c-0.2,0-0.5,0.3-0.5,0.5c-0.3,0.4-0.4,0.7-0.7,1.1c-0.3,0.5-0.5,1.1-1,1.3c-0.3,0.1-0.4,0.2-0.7,0
				c-0.7-0.1-1.9-0.7-1.9-1.4c0-0.5,0.3-1,0.6-1.5c0.3-0.5,0.8-1,0.6-1.6c-0.1-0.1-0.2-0.1-0.1-0.2c0-0.1,0.2-0.1,0.3,0
				c0.2,0.1,0.6,0.3,0.8,0.4c0.1,0.1,0.4,0.1,0.3,0.3c-0.2,0.1-0.6,0.2-0.7,0.3c-0.5,0.7-0.8,1.4-1.1,2.1c-0.1,0.3,0.1,0.6,0.3,0.9
				c0.2,0.1,0.6,0.3,0.9,0.3c0.8,0,1.3-1.3,1.6-1.9c0.1-0.3,0.3-0.7,0.1-1.1c-0.1-0.1,0-0.1,0-0.1c0.4,0.1,0.7,0.3,1.1,0.4
				C40.1,92.8,40.1,92.9,40,92.9L40,92.9z"/>
			<path class="st16" d="M35.7,90.9c-0.6,0.4-1,1.1-1.3,1.7c-0.3,0.4-0.5,0.9-0.7,1.3c-0.1,0.1-0.1,0.2-0.3,0.3
				c-0.1,0-0.3,0-0.4-0.1c0,0-0.1-0.1-0.1-0.2c-0.1-0.2-0.1-1.1-0.1-1.8c-0.1-0.4-0.1-1-0.2-1.5c-0.1-0.1-0.1-0.4-0.2-0.3
				c-0.4,0.5-0.5,0.8-0.8,1.4c-0.2,0.4-0.4,0.9-0.4,1.2c0.1,0.1,0.2,0.2,0.1,0.3c-0.1,0.1-0.3,0-0.4-0.1c-0.2-0.1-0.5-0.3-0.7-0.3
				c0-0.2,0.1-0.2,0.2-0.3c0.4-0.1,0.6-0.8,0.9-1.1c0.3-0.6,0.4-0.8,0.7-1.3c0.1-0.1,0.2-0.3,0.2-0.4c-0.3-0.1-0.6,0-0.8,0.1
				c-0.1,0-0.2,0-0.1-0.1c0-0.1,0.1-0.2,0.4-0.3c0.2-0.1,0.6-0.3,0.9-0.1c0.3,0.1,0.6,0.3,0.6,0.5c0.3,0.9,0.3,1.8,0.3,2.8
				c0.1,0.2,0,0.3,0,0.5c0.4-0.5,0.6-1,0.8-1.5c0-0.4,0.3-0.9,0-1.3c0-0.1,0.1-0.1,0.1-0.1c0.5,0.2,0.9,0.4,1.3,0.7
				C35.9,90.9,35.8,90.9,35.7,90.9L35.7,90.9z"/>
			<path class="st16" d="M29.7,92.3c-0.3-0.1-0.8-0.4-1.2-0.6c-0.1,0-0.2-0.1-0.1-0.2c0.1-0.1,0.2,0,0.2,0c0.5-0.3,0.4-0.7,0.5-1.1
				c-0.4-0.2-0.9-0.5-1.2-0.7c-0.4,0.4-0.7,0.9-0.6,1.3c-0.1,0.2-0.3,0-0.4,0c-0.2-0.1-0.4-0.2-0.6-0.4c-0.1,0-0.2,0-0.3-0.1
				c0.1-0.2,0.3,0,0.6-0.1c1-0.7,1.7-1.5,2.5-2.3c0.1-0.1-0.3-0.1-0.5-0.2c-0.2,0-0.4,0.2-0.4,0.1l0-0.1c0.5-0.3,1-0.5,1.6-0.3
				c0.5,0.3,0.5,0.9,0.5,1.4c0,0.3-0.2,2-0.3,2.5c0,0.2,0.1,0.4,0.1,0.7C29.9,92.2,29.8,92.3,29.7,92.3L29.7,92.3z M29,89.9
				c-0.2,0-0.7-0.2-0.9-0.4c0.3-0.4,0.7-0.7,1.1-1C29.3,88.6,29,89.8,29,89.9L29,89.9z"/>
			<path class="st16" d="M27.4,87.2c-0.2-0.1-0.3-0.3-0.5-0.2c-0.3,0.2-0.5,0.8-0.7,1.1c-0.3,0.6-0.6,1.2-0.9,1.7
				c0,0.1,0.2,0.3,0.1,0.5c-0.1,0-0.2,0-0.2,0c-0.3-0.2-0.6-0.4-0.9-0.5c-0.1-0.1-0.2-0.1-0.1-0.2c0.2-0.1,0.7-0.2,0.8-0.7
				c0.3-0.5,0.7-1.1,1-1.7c-0.1,0-0.1,0-0.1,0c-0.9,0.4-1.8,1.1-2.6,1.7c-0.1,0.1-0.2,0-0.2,0c0-0.5,0-0.9,0.1-1.8
				c-0.1-0.1,0-1.2-0.1-1.3c-0.4,0.4-0.7,1-0.8,1.5c-0.2,0.3-0.5,0.8-0.3,1.2c0,0,0,0.1-0.1,0.1c-0.4-0.3-0.8-0.4-1.2-0.7
				c0-0.1,0,0,0-0.1c0.5,0,1-0.7,1.3-1.1c0.3-0.5,0.7-1,0.9-1.6c0-0.1-0.3-0.3-0.4-0.3c-0.2-0.1-0.4,0.1-0.7,0.1
				c-0.1-0.1-0.1-0.2,0-0.2c0.2-0.3,0.7-0.5,1.1-0.3c0.4,0.2,0.8,0.5,0.9,0.8c0,0.9-0.1,1.7-0.1,2.5l0,0.1c1-0.6,1.8-1.4,2.6-1.6
				c0.6,0,0.8,0.1,0.8,0.2c0.2,0.1,0.3,0.2,0.3,0.3C27.5,87.1,27.4,87.1,27.4,87.2L27.4,87.2z"/>
		</g>
		<g>
			<path class="st16" d="M67.9,88c-0.6,0.3-1.6,0.7-2.2,1.1c-0.1,0-0.2-0.1-0.2-0.1c0.1-0.3,0.1-0.6,0-0.9c-0.4-0.7-0.7-1.3-1.1-2
				c-0.1-0.2-0.5-0.3-0.8-0.4c0-0.1,0.1-0.1,0.1-0.1c0.7-0.4,1.6-0.7,2.2-1.1c0.2-0.1,0.4-0.3,0.6-0.2c0.2,0.3,0.5,0.4,0.5,0.7
				c-0.3,0.2-0.4,0-0.6-0.1c-0.5,0-1,0.2-1.4,0.5c-0.1,0-0.1,0.1,0,0.2c0.1,0.3,0.3,0.6,0.4,0.9c0.4-0.2,0.9-0.3,0.9-0.7
				c0.1-0.1,0.1-0.1,0.2-0.1c0.2,0.2,0.1,0.3,0.3,0.4c0.1,0.2,0.3,0.4,0.2,0.6c-0.2,0-0.5-0.3-0.8-0.1c-0.2,0.1-0.4,0.1-0.6,0.4
				c0.2,0.4,0.3,0.9,0.7,1.2c0.4,0.1,1.2-0.3,1.4-0.8c0.1-0.2-0.1-0.6,0.1-0.7c0.1,0,0.2,0.2,0.2,0.2C68.1,87.2,68.2,87.7,67.9,88
				L67.9,88z"/>
			<path class="st16" d="M63.7,90c-0.2,0.1-0.5,0.3-0.7,0.3c-0.1-0.1,0-0.2,0.1-0.3c0-0.7-0.9-2-1.5-3c-0.2,0-0.6,0.4-0.7,0.6
				c-0.1,0.2,0.1,0.4-0.1,0.6c-0.3,0-0.3-0.4-0.4-0.5c0-0.2-0.1-0.3-0.2-0.4c0-0.2,2.1-1.2,2.9-1.6c0.3-0.2,0.4,0.3,0.5,0.3
				c0.1,0.2,0.4,0.4,0.2,0.6c-0.3,0-0.3-0.2-0.6-0.2c-0.2-0.2-0.6,0-0.8,0.1c-0.2,0-0.1,0.2-0.1,0.2c0.3,0.8,0.9,1.8,1.4,2.5
				c0.1,0.2,0.4,0.1,0.6,0.3C64.3,89.8,64,89.8,63.7,90L63.7,90z"/>
			<path class="st16" d="M61,91.1c-1.1-0.6-2.2-1.2-3.3-1.8l0,0c0.4,0.9,0.7,1.7,1.5,2.3c0,0.2,0.3,0.1,0.2,0.3
				c-0.1,0.1-0.4,0.1-0.5,0.3c-0.3,0-0.5,0.4-0.6,0.1c0.2-0.8-0.4-1.6-0.7-2.3c-0.1-0.3-0.3-0.6-0.4-0.8c-0.4,0.1-0.5,0.6-0.6,0.9
				c-0.1,0.1-0.3-0.1-0.4-0.1c-0.1-0.2-0.4-0.3-0.7-0.2c-0.3,0.1-0.6,0.3-0.9,0.4c0.2,0.4,0.3,0.8,0.6,1.1c0,0.1,0.1,0,0.1,0
				c0.4-0.1,0.7-0.3,0.8-0.6l0.1,0c0.2,0.2,0.4,0.4,0.5,0.6c-0.2,0-0.3-0.1-0.4,0c-0.3,0.1-0.6,0.2-0.9,0.4c0.2,0.4,0.4,0.8,0.7,1.2
				c0.1,0.2,0.4,0,0.7,0c0.6-0.3,0.8-0.9,0.7-1.5c0.1,0,0.2-0.1,0.2,0c0.2,0.3,0.3,0.6,0.4,0.8c0,0.2,0.2,0.3-0.1,0.3
				c-0.8,0.4-1.4,0.7-2.2,1.1c-0.2,0-0.3,0.1-0.5,0.3c-0.1-0.1-0.1,0-0.1-0.1c-0.1,0,0-0.1,0-0.2c0.1-0.7-0.3-1.2-0.7-2.1
				c-0.1-0.2-0.6-1-0.9-1c-0.1,0-0.1,0.1-0.1,0.2l0,0.2c-0.1-0.1-0.3-0.1-0.5,0.1c0,0.1,0,0.1,0,0.1c0.1,0.4,0.2,0.8,0.5,1.2
				c0.4,0.6,0.6,1.3,1.3,1.8c0.1,0.1,0,0.1-0.1,0.2c-0.3,0.2-0.7,0.2-1,0.4c-0.2-0.2-0.1-0.4-0.1-0.6c-0.1-0.4-0.2-0.7-0.5-1.1
				c-0.2-0.5-0.3-0.8-0.6-1.2c-0.1,0.2-0.1,0.4-0.1,0.7c0,0.7,0,1.4,0.1,2.2c0,0-0.1,0-0.1,0.1c-0.1,0-0.2-0.1-0.2-0.2
				c-0.7-0.4-1.7-1.4-2.4-1.8c0,0,0,0.3,0.1,0.3c0.4,0.8,0.6,1.4,1.1,2.1c0.1,0.2,0.4,0.3,0.6,0.3c-0.1,0,0,0.1-0.1,0.1
				c-0.2,0.1-0.3,0.1-0.5,0.3c-0.2,0-0.5,0.4-0.6,0.2c0.2-0.5-0.2-1.2-0.3-1.6c-0.3-0.6-0.6-1-0.8-1.6l-0.1,0
				c-0.2,0.1-0.1,0.4-0.2,0.7c-0.1,0.1-0.1,0.1-0.2,0.1c0-0.2-0.1-0.5,0-0.7c0-0.3,0.1-0.6,0.4-0.8c0.3-0.1,0.8-0.3,1,0
				c0.7,0.5,1.2,1.1,1.9,1.5l0.1-0.1c-0.1-0.7-0.1-1.4-0.1-2c0-0.3,0-0.6,0.4-0.9c0.1-0.1,0.4-0.1,0.6-0.1c0.1-0.1,0.3-0.3,0.4-0.4
				c0.8-0.4,1.5-0.8,2.3-1.1l0.1,0c0.1,0.2,0.2,0.4,0.4,0.4c0.1-0.2,0-0.4,0.2-0.6c0.3-0.3,0.9-0.5,1.3-0.3c0.8,0.2,2.2,1.2,2.7,1.4
				c-0.3-0.6-0.6-1.1-0.8-1.5C59.6,88.4,59.3,88,59,88c-0.1,0-0.1-0.1-0.1-0.1c0.4-0.1,0.8-0.4,1.2-0.6c0.2,0.1-0.1,0.3,0,0.5
				c0.2,0.8,0.6,1.4,0.9,2.1c0.3,0.3,0.4,0.7,0.6,0.9C61.6,91,61.1,91.2,61,91.1L61,91.1z"/>
		</g>
		<g>
			<path d="M37.9,17.8c0,0.4-0.4,0.7-0.8,0.7c-0.3,0-0.6-0.2-0.8-0.4c0,0,0,0,0-0.1l0.2-0.2c0,0,0,0,0.1,0c0.2,0.1,0.3,0.2,0.5,0.2
				c0.2,0,0.4-0.1,0.4-0.3c0-0.4-1.1-0.3-1.1-1c0-0.4,0.3-0.6,0.7-0.6c0.3,0,0.5,0.1,0.7,0.3c0,0,0,0,0,0.1l-0.2,0.2c0,0,0,0-0.1,0
				c-0.2-0.1-0.3-0.2-0.4-0.2c-0.2,0-0.3,0.1-0.3,0.2C36.8,17.2,37.9,17,37.9,17.8z"/>
			<path d="M40.5,18.1C40.5,18.1,40.5,18.1,40.5,18.1c-0.2,0.3-0.5,0.4-0.8,0.4c-0.7,0-1.2-0.5-1.2-1.2c0-0.6,0.5-1.2,1.2-1.2
				c0.3,0,0.6,0.1,0.8,0.3c0,0,0,0,0,0.1l-0.2,0.2c0,0,0,0-0.1,0c-0.1-0.1-0.3-0.2-0.5-0.2c-0.4,0-0.7,0.3-0.7,0.7
				c0,0.4,0.3,0.7,0.7,0.7c0.2,0,0.4-0.1,0.5-0.2c0,0,0,0,0.1,0L40.5,18.1z"/>
			<path d="M41.3,16.2h0.4c0,0,0,0,0,0v2.2c0,0,0,0,0,0h-0.4c0,0,0,0,0,0L41.3,16.2C41.2,16.2,41.2,16.2,41.3,16.2z"/>
			<path d="M43.8,18.1v0.3c0,0,0,0,0,0h-1.2c0,0,0,0,0,0v-2.2c0,0,0,0,0,0h1.2c0,0,0,0,0,0v0.3c0,0,0,0,0,0H43v0.5h0.8
				c0,0,0.1,0,0.1,0v0.3c0,0,0,0-0.1,0H43v0.6L43.8,18.1C43.8,18.1,43.8,18.1,43.8,18.1z"/>
			<path d="M46.5,16.2v2.2c0,0,0,0,0,0H46c0,0,0,0-0.1,0l-0.9-1.5v1.5c0,0,0,0-0.1,0h-0.4c0,0,0,0,0,0v-2.2c0,0,0,0,0,0h0.4
				c0,0,0,0,0.1,0l0.9,1.5v-1.5c0,0,0,0,0,0L46.5,16.2C46.5,16.2,46.5,16.2,46.5,16.2z"/>
			<path d="M48.7,16.2v0.3c0,0,0,0,0,0h-0.5v1.8c0,0,0,0,0,0h-0.4c0,0,0,0,0,0v-1.8h-0.5c0,0,0,0,0,0v-0.3c0,0,0,0,0,0L48.7,16.2
				C48.7,16.2,48.7,16.2,48.7,16.2z"/>
			<path d="M49.4,16.2h0.4c0,0,0,0,0,0v2.2c0,0,0,0,0,0h-0.4c0,0,0,0,0,0L49.4,16.2C49.3,16.2,49.4,16.2,49.4,16.2z"/>
			<path d="M52.5,18.4h-0.4c0,0,0,0-0.1,0L51.9,18H51l-0.1,0.4c0,0,0,0-0.1,0h-0.4c0,0-0.1,0,0-0.1l0.8-2.2c0,0,0,0,0.1,0h0.3
				c0,0,0.1,0,0.1,0L52.5,18.4C52.5,18.4,52.5,18.4,52.5,18.4z M51.8,17.6l-0.3-0.9l-0.3,0.9H51.8z"/>
		</g>
		<g>
			<path class="st0" d="M44.4,37.2l-0.7-1.7l-1.8,0.7l0.8-1.7l-1.8-0.7l1.8-0.7l-0.8-1.7l1.8,0.7l0.7-1.7l0.7,1.7l1.8-0.7l-0.8,1.7
				l1.8,0.7l-1.8,0.7l0.8,1.7l-1.8-0.7L44.4,37.2L44.4,37.2z"/>
		</g>
		<g>
			<path class="st0" d="M44.4,76.9l-0.7-1.7l-1.8,0.7l0.8-1.7l-1.8-0.7l1.8-0.7l-0.8-1.7l1.8,0.7l0.7-1.7l0.7,1.7l1.8-0.7L46,72.9
				l1.8,0.7L46,74.2l0.8,1.7l-1.8-0.7L44.4,76.9L44.4,76.9z"/>
		</g>
		<g>
			<path class="st0" d="M66.5,57.7L65.8,56L64,56.7l0.8-1.7L63,54.3l1.8-0.7L64,51.9l1.8,0.7l0.7-1.7l0.7,1.7l1.8-0.7l-0.8,1.7
				l1.8,0.7L68.2,55l0.8,1.7L67.2,56L66.5,57.7L66.5,57.7z"/>
		</g>
		<g>
			<path class="st0" d="M22.5,57.7L21.8,56L20,56.7l0.8-1.7L19,54.3l1.8-0.7L20,51.9l1.8,0.7l0.7-1.7l0.7,1.7l1.8-0.7l-0.8,1.7
				l1.8,0.7L24.2,55l0.8,1.7L23.2,56L22.5,57.7L22.5,57.7z"/>
		</g>
	</g>
	<g>
		<g>
			<path d="M122.4,47.5c-0.1,10.8-5.4,16.2-15.2,16.2c-9.7,0-15.4-4.4-15.4-14.4c0-4.5,0-7,0-10.2c0-5.7-0.6-10.3-0.8-12.7
				c1.2,0.2,3,0.3,4.1,0.3c1.1,0,2.3-0.1,3.3-0.3c-0.5,5-0.7,11.7-0.7,18.6c0,10,1.8,15.6,11.1,15.6c10,0,10.2-9.9,10.2-18.1
				c0-7.4-0.1-12.7-0.4-16.1c0.8,0.2,1.6,0.3,2.4,0.3c0.7,0,1.4-0.1,2.1-0.3C122.9,30.4,122.5,39.1,122.4,47.5"/>
			<path d="M156.7,44.2c-0.1,5.6-0.1,14.2,0,19.2c-0.4-0.1-0.9-0.2-1.3-0.2c-0.4,0-0.9,0.1-1.2,0.2c-7.6-9-16.2-18.3-24.8-27.3
				c-0.1,2.9-0.2,6.7-0.2,11.4c0,6.5,0.2,13.5,0.4,15.5c-0.7-0.2-1.5-0.3-2.1-0.3c-0.7,0-1.5,0.1-2.2,0.3c0.4-2,1.1-15.5,1.1-24.3
				c0-5.7-0.1-9.8-0.2-12.2c0.4,0.1,1,0.1,1.4,0.1c0.4,0,1-0.1,1.4-0.1c8,8.8,17.6,19.2,24.7,26.6c0-8.9,0-21.1-0.4-26.3
				c0.7,0.2,1.4,0.3,2.1,0.3c0.7,0,1.3-0.1,2-0.3C157.1,31.9,156.7,39.7,156.7,44.2"/>
			<path d="M170,63.9c-4.6,0-9.3-2.2-11.6-3.8c0.9-0.7,1.3-0.9,2.3-2.3c0.7-1,1.2-2.6,1.2-2.6c0.9,2.8,3.8,5.5,8.9,5.5
				c5.1,0,8.7-3.8,8.7-7.4c0-8.8-19.3-4.8-19.3-16.9c0-6.6,5.8-10.2,13.5-10.2c4.1,0,7.5,1.3,9.9,2.9c-1.1,0.9-1.3,0.9-1.9,2
				c-0.5,0.8-1.2,2.5-1.2,2.5c-1-2.5-3.2-4.7-7.3-4.7c-4.2,0-7.1,2.6-7.1,5.8c0,8.8,20.1,5.3,20,16.7C186,60.1,179.6,63.9,170,63.9"
				/>
			<path d="M222.9,63c-0.7-0.1-1.5-0.3-2.2-0.3c-0.7,0-1.5,0.2-2.2,0.3c-2.5-9.2-5.4-18.4-8.6-27.9h-0.1c-1.9,6-6.6,19.3-9.2,27.9
				c-0.7-0.1-1.4-0.3-2.2-0.3c-0.7,0-1.5,0.2-2.2,0.3c-1.5-5.7-3.6-14-6.4-22.9c-0.8-2.8-3.9-11.4-4.8-13.3c1.2,0.2,2.9,0.3,4,0.3
				c1.1,0,2.2-0.1,3.3-0.3c2.3,9.8,4.7,18.5,7.7,28.8h0.1c2.4-7.3,7.8-23.7,9.1-28.8c0.7,0.2,1.4,0.3,2.1,0.3c0.7,0,1.4-0.1,2.1-0.3
				c1.2,5.2,7,22.6,8.8,28.8h0.1c2.1-6.8,7.3-24.5,8.2-28.8c0.6,0.2,1.3,0.3,1.9,0.3c0.7,0,1.3-0.1,2-0.3
				C233,31.3,225.3,54.5,222.9,63"/>
		</g>
		<g>
			<path d="M127.2,73.1c-0.3-0.2-0.7-0.4-1-0.5c-0.3-0.1-0.6-0.3-0.9-0.4c-0.3-0.1-0.5-0.3-0.7-0.5c-0.2-0.2-0.2-0.4-0.2-0.8
				c0-0.2,0-0.4,0.1-0.5c0.1-0.2,0.2-0.3,0.3-0.4c0.1-0.1,0.3-0.2,0.4-0.3c0.3-0.1,0.8-0.1,1,0c0.1,0.1,0.3,0.2,0.4,0.3
				c0.1,0.1,0.2,0.2,0.2,0.3c0.1,0.1,0.1,0.3,0.2,0.4l0.1,0.2h0.6l0-0.2c0-0.2,0.1-0.4,0.1-0.6c0-0.1,0.1-0.3,0.2-0.4l0.1-0.2
				l-0.2-0.2c-0.3-0.2-0.6-0.4-0.9-0.5c-0.7-0.2-1.7-0.2-2.4,0c-0.4,0.1-0.7,0.3-1,0.6c-0.3,0.2-0.5,0.6-0.6,0.9
				c-0.1,0.3-0.2,0.7-0.2,1.1c0,0.6,0.1,1.1,0.4,1.4c0.2,0.3,0.5,0.6,0.8,0.9c0.3,0.2,0.7,0.4,1,0.5c0.3,0.1,0.7,0.3,0.9,0.4
				c0.3,0.1,0.5,0.3,0.7,0.5c0.2,0.2,0.2,0.4,0.2,0.8c0,0.2,0,0.4-0.1,0.6c-0.1,0.2-0.2,0.4-0.3,0.5c-0.1,0.1-0.3,0.3-0.5,0.3
				c-0.4,0.2-0.9,0.2-1.3,0c-0.2-0.1-0.4-0.2-0.5-0.3c-0.1-0.1-0.3-0.2-0.4-0.4c-0.1-0.1-0.2-0.3-0.2-0.4l-0.1-0.2h-0.6l0,0.3
				c0,0.2-0.1,0.4-0.1,0.6c0,0.1-0.1,0.3-0.1,0.5l-0.1,0.2l0.2,0.1c0.2,0.2,0.5,0.4,0.9,0.5c0.4,0.2,0.8,0.2,1.4,0.2
				c0.5,0,1-0.1,1.4-0.2c0.4-0.2,0.8-0.4,1.1-0.7c0.3-0.3,0.5-0.7,0.7-1.1c0.2-0.4,0.2-0.8,0.2-1.3c0-0.5-0.1-1-0.4-1.3
				C127.8,73.6,127.5,73.3,127.2,73.1z"/>
			<path d="M141.8,68.6l-0.2-0.1l-0.1,0.2c-0.2,0.4-0.4,0.8-0.5,1.2c-0.2,0.4-0.4,0.8-0.6,1.2c-0.2,0.4-0.4,0.8-0.6,1.2
				c-0.1,0.2-0.2,0.4-0.3,0.6c-0.4-0.6-0.7-1.3-1-1.9c-0.4-0.7-0.8-1.5-1.2-2.3l-0.1-0.2l-0.6,0.1c-0.2,0-0.4,0-0.6,0l-1-0.1
				l0.3,0.6c0.1,0.1,0.2,0.3,0.4,0.6l2.4,4.1c0.1,0.2,0.3,0.4,0.3,0.6c0,0.7,0,1.3,0,2c0,0.6,0,1.2-0.1,1.6l0,0.4l0.4,0
				c0.4,0,0.8,0,1.2,0l0.4,0l0-0.4c0-0.2,0-0.4,0-0.7c0-0.3,0-0.6,0-1c0-0.4,0-0.7,0-1.1c0-0.3,0-0.7,0-1c0.1-0.3,0.3-0.5,0.5-0.8
				c0.2-0.3,0.4-0.7,0.7-1.1c0.2-0.4,0.5-0.9,0.9-1.4c0.3-0.5,0.7-1.1,1.1-1.7l0.4-0.6l-0.7,0.2C142.2,68.7,142.3,68.7,141.8,68.6z"
				/>
			<path d="M158,69.9L158,69.9c-0.4-0.4-0.9-0.7-1.4-1c-0.8-0.3-1.9-0.4-3-0.3c-0.6,0-1.3,0-1.9,0c-0.3,0-0.6,0-1,0l-0.3,0l0.1,2.1
				c0,0.6,0,1.1,0,1.7v2.3c0,0.6,0,1.2,0,1.7c0,0.6,0,1.1-0.1,1.7l0,0.3l0.3,0c0.3,0,0.6,0,0.8,0h0.9c0.3,0,0.6,0,0.9,0
				c0.8,0,1.6,0,2.5-0.2c0.6-0.2,1.1-0.4,1.6-0.8c0.5-0.4,0.9-0.9,1.2-1.6c0.3-0.6,0.5-1.4,0.5-2.4c0-0.7-0.1-1.4-0.3-1.9
				C158.7,70.8,158.4,70.3,158,69.9z M156.9,75.3c-0.2,0.5-0.5,0.9-0.8,1.2c-0.3,0.3-0.7,0.5-1.1,0.6c-0.8,0.2-1.6,0.2-2.3,0.1
				c-0.2,0-0.3,0-0.5,0c0-0.8-0.1-1.7-0.1-2.6v-2.3c0-0.5,0-0.9,0-1.4c0-0.4,0-0.7,0-1.1c0.2,0,0.4,0,0.6-0.1
				c0.8-0.1,1.7-0.1,2.5,0.1c0.4,0.1,0.7,0.3,1,0.5c0.3,0.3,0.5,0.6,0.7,1.1c0.2,0.5,0.3,1.1,0.3,1.8
				C157.2,74.1,157.1,74.8,156.9,75.3z"/>
			<path d="M174.4,68.7c-0.1,0-0.2,0-0.4-0.1l-0.4-0.1l0,0.4c0,0.8,0.1,1.6,0.1,2.5c0,0.9,0,1.8,0,2.7v1c-0.3-0.3-0.5-0.6-0.8-0.9
				l-1.7-1.8c-0.6-0.7-1.2-1.3-1.8-2l-1.8-2H167l0,0.3c0,0.3,0,0.7,0,1.4c0,0.6,0,1.3,0,2.2c0,0.3,0,0.6,0,1l0,1.1
				c0,0.4,0,0.8-0.1,1.2l-0.1,1.1c0,0.3,0,0.6-0.1,0.8c0,0.2,0,0.4-0.1,0.5l-0.1,0.4l0.4-0.1c0.3,0,0.6,0,0.8,0l0.4,0.1l-0.1-0.4
				c0-0.1,0-0.2,0-0.4l-0.1-1.6c0-0.3,0-0.6,0-0.9l0-0.9c0-0.3,0-0.5,0-0.7c0-0.7,0-1.3,0-1.7c0-0.1,0-0.2,0-0.2
				c0.9,1,1.9,2.1,2.8,3.1c1.1,1.2,2.2,2.4,3.2,3.6l0.1,0.1h0.6v-0.7c0-0.2,0-0.5,0-0.8l0-1.9c0-0.3,0-0.6,0-0.9v-0.8
				c0-0.3,0-0.6,0-1c0-0.4,0-0.9,0.1-1.3c0-0.4,0-0.9,0.1-1.2c0-0.4,0-0.7,0.1-0.9l0-0.4l-0.4,0.1C174.5,68.7,174.4,68.7,174.4,68.7
				z"/>
			<path d="M188.5,77.4l0.1-0.5l-0.5,0.1c-0.2,0-0.4,0.1-0.7,0.1c-0.3,0-0.6,0-0.9,0.1c-0.3,0-0.6,0-0.9,0h-0.6c0-0.1,0-0.3,0-0.4
				c0-0.3,0-0.7,0-1.2v-1.3c0-0.1,0-0.2,0-0.3c0.1,0,0.2,0,0.3,0l0.8,0c0.3,0,0.6,0,0.9,0c0.3,0,0.5,0,0.8,0.1l0.4,0.1l-0.1-0.4
				c0-0.1,0-0.2,0-0.3c0-0.1,0-0.2,0-0.4l0.1-0.4l-0.4,0c-0.2,0-0.4,0-0.6,0l-0.7,0c-0.2,0-0.5,0-0.8,0c-0.2,0-0.4,0-0.7,0
				c0-0.1,0-0.3,0-0.4c0-0.3,0-0.7,0-1c0-0.3,0-0.6,0-0.9c0-0.2,0-0.3,0-0.5c0.3,0,0.5,0,0.8,0c0.3,0,0.6,0,0.8,0l0.7,0.1
				c0.2,0,0.5,0,0.8,0.1l0.4,0l-0.1-0.4c0-0.1,0-0.2,0-0.3c0-0.1,0-0.2,0-0.3l0.1-0.4l-1.5,0.1c-0.7,0-1.5,0-2.3,0
				c-0.4,0-0.8,0-1.2,0l-0.3,0l0,0.3c0,0.6,0,1.1,0.1,1.7c0,0.6,0,1.1,0,1.7v2.3c0,0.6,0,1.1,0,1.7c0,0.6,0,1.1-0.1,1.7l0,0.3l0.3,0
				c0.4,0,0.8,0,1.2,0h2.3c0.4,0,0.8,0,1.1,0l0.4,0l-0.1-0.4c0,0,0-0.1,0-0.3c0-0.1,0-0.1,0-0.2C188.5,77.5,188.5,77.4,188.5,77.4z"
				/>
			<path d="M202.8,68.6c-0.5,0.1-0.4,0.1-0.9,0l-0.2-0.1l-0.1,0.2c-0.2,0.4-0.4,0.8-0.5,1.2c-0.2,0.4-0.4,0.8-0.6,1.2
				c-0.2,0.4-0.4,0.8-0.6,1.2c-0.1,0.2-0.2,0.4-0.3,0.6c-0.4-0.6-0.7-1.3-1-1.9c-0.4-0.7-0.8-1.5-1.2-2.3l-0.1-0.2l-0.6,0.1
				c-0.2,0-0.4,0-0.6,0l-1-0.1l0.3,0.6c0.1,0.1,0.2,0.3,0.4,0.6l2.4,4.1c0.1,0.2,0.3,0.4,0.3,0.6c0,0.7,0,1.3,0,2
				c0,0.6,0,1.2-0.1,1.6l0,0.4l0.4,0c0.4,0,0.8,0,1.2,0l0.4,0l0-0.4c0-0.2,0-0.4,0-0.7c0-0.3,0-0.6,0-1c0-0.4,0-0.7,0-1.1
				c0-0.3,0-0.7,0-1c0.1-0.3,0.3-0.5,0.5-0.8c0.2-0.3,0.4-0.7,0.7-1.1c0.2-0.4,0.5-0.9,0.9-1.4c0.3-0.5,0.7-1.1,1.1-1.7l0.4-0.6
				L202.8,68.6z"/>
		</g>
	</g>
</g>
<g id="Layer_2">
</g>
</svg>
